M48
; DRILL file {KiCad 9.0.6} date 2025-12-31T22:25:01-0800
; FORMAT={-:-/ absolute / metric / decimal}
; #@! TF.CreationDate,2025-12-31T22:25:01-08:00
; #@! TF.GenerationSoftware,Kicad,Pcbnew,9.0.6
; #@! TF.FileFunction,Plated,1,2,PTH
FMAT,2
METRIC
; #@! TA.AperFunction,Plated,PTH,ViaDrill
T1C0.200
; #@! TA.AperFunction,Plated,PTH,ViaDrill
T2C0.300
; #@! TA.AperFunction,Plated,PTH,ComponentDrill
T3C0.600
; #@! TA.AperFunction,Plated,PTH,ComponentDrill
T4C0.700
; #@! TA.AperFunction,Plated,PTH,ComponentDrill
T5C1.000
; #@! TA.AperFunction,Plated,PTH,ComponentDrill
T6C1.200
%
G90
G05
T1
X145.95Y-100.225
X150.7Y-112.6
X151.175Y-116.75
X151.6Y-117.15
X156.55Y-113.868
X156.75Y-113.0
X157.55Y-115.65
X157.65Y-114.2
X157.9Y-116.775
X157.9Y-121.6
X158.257Y-114.282
X158.525Y-121.575
X160.8Y-102.625
X161.246Y-114.121
X161.537Y-114.537
X161.9Y-102.625
X162.3Y-115.175
X162.317Y-112.442
X163.0Y-102.625
X165.2Y-102.625
X167.325Y-100.35
X168.5Y-102.625
X168.725Y-119.05
X169.6Y-103.675
X169.8Y-118.225
X169.85Y-119.925
X173.375Y-130.45
X173.9Y-130.15
X174.4Y-129.575
X174.9Y-131.75
T2
X145.2Y-128.2
X146.025Y-117.35
X146.4Y-131.475
X147.65Y-119.2
X149.133Y-124.883
X149.289Y-124.099
X149.7Y-126.55
X149.969Y-123.419
X150.938Y-119.338
X151.713Y-119.538
X151.875Y-131.475
X154.55Y-128.8
X161.45Y-112.8
X163.675Y-124.975
X164.55Y-120.375
X168.25Y-121.5
X171.19Y-132.4
X171.88Y-124.23
X173.65Y-126.75
X175.5Y-123.95
X175.65Y-113.375
X178.247Y-127.803
X178.299Y-127.076
T4
X158.563Y-129.097
X164.343Y-129.097
T5
X159.99Y-90.7
X167.99Y-90.7
X174.095Y-93.775
X174.11Y-90.1
X176.635Y-93.775
X176.65Y-90.1
X179.175Y-93.775
X179.19Y-90.1
T6
X178.85Y-116.65
X178.85Y-119.19
T3
X157.133Y-128.117G85X157.133Y-129.017
G05
X157.133Y-132.477G85X157.133Y-133.077
G05
X165.773Y-128.117G85X165.773Y-129.017
G05
X165.773Y-132.477G85X165.773Y-133.077
G05
M30
