%TF.GenerationSoftware,KiCad,Pcbnew,9.0.6*%
%TF.CreationDate,2025-12-31T22:25:01-08:00*%
%TF.ProjectId,SimpleFlightController,53696d70-6c65-4466-9c69-676874436f6e,rev?*%
%TF.SameCoordinates,Original*%
%TF.FileFunction,Drillmap*%
%TF.FilePolarity,Positive*%
%FSLAX45Y45*%
G04 Gerber Fmt 4.5, Leading zero omitted, Abs format (unit mm)*
G04 Created by KiCad (PCBNEW 9.0.6) date 2025-12-31 22:25:01*
%MOMM*%
%LPD*%
G01*
G04 APERTURE LIST*
%ADD10C,0.050000*%
%ADD11C,0.200000*%
%ADD12C,0.100000*%
%ADD13C,0.120000*%
G04 APERTURE END LIST*
D10*
X14235000Y-8797500D02*
X18235000Y-8797500D01*
X18235000Y-13397500D01*
X14235000Y-13397500D01*
X14235000Y-8797500D01*
D11*
D12*
X14585000Y-10012500D02*
X14605000Y-10032500D01*
X14605000Y-10012500D02*
X14585000Y-10032500D01*
X15060000Y-11250000D02*
X15080000Y-11270000D01*
X15080000Y-11250000D02*
X15060000Y-11270000D01*
X15107500Y-11665000D02*
X15127500Y-11685000D01*
X15127500Y-11665000D02*
X15107500Y-11685000D01*
X15150000Y-11705000D02*
X15170000Y-11725000D01*
X15170000Y-11705000D02*
X15150000Y-11725000D01*
X15645000Y-11376802D02*
X15665000Y-11396802D01*
X15665000Y-11376802D02*
X15645000Y-11396802D01*
X15665000Y-11290000D02*
X15685000Y-11310000D01*
X15685000Y-11290000D02*
X15665000Y-11310000D01*
X15745000Y-11555000D02*
X15765000Y-11575000D01*
X15765000Y-11555000D02*
X15745000Y-11575000D01*
X15755000Y-11410000D02*
X15775000Y-11430000D01*
X15775000Y-11410000D02*
X15755000Y-11430000D01*
X15780000Y-11667500D02*
X15800000Y-11687500D01*
X15800000Y-11667500D02*
X15780000Y-11687500D01*
X15780000Y-12150000D02*
X15800000Y-12170000D01*
X15800000Y-12150000D02*
X15780000Y-12170000D01*
X15815717Y-11418217D02*
X15835717Y-11438217D01*
X15835717Y-11418217D02*
X15815717Y-11438217D01*
X15842500Y-12147500D02*
X15862500Y-12167500D01*
X15862500Y-12147500D02*
X15842500Y-12167500D01*
X16070000Y-10252500D02*
X16090000Y-10272500D01*
X16090000Y-10252500D02*
X16070000Y-10272500D01*
X16114638Y-11402138D02*
X16134638Y-11422138D01*
X16134638Y-11402138D02*
X16114638Y-11422138D01*
X16143744Y-11443744D02*
X16163744Y-11463744D01*
X16163744Y-11443744D02*
X16143744Y-11463744D01*
X16180000Y-10252500D02*
X16200000Y-10272500D01*
X16200000Y-10252500D02*
X16180000Y-10272500D01*
X16220000Y-11507500D02*
X16240000Y-11527500D01*
X16240000Y-11507500D02*
X16220000Y-11527500D01*
X16221716Y-11234216D02*
X16241716Y-11254216D01*
X16241716Y-11234216D02*
X16221716Y-11254216D01*
X16290000Y-10252500D02*
X16310000Y-10272500D01*
X16310000Y-10252500D02*
X16290000Y-10272500D01*
X16510000Y-10252500D02*
X16530000Y-10272500D01*
X16530000Y-10252500D02*
X16510000Y-10272500D01*
X16722500Y-10025000D02*
X16742500Y-10045000D01*
X16742500Y-10025000D02*
X16722500Y-10045000D01*
X16840000Y-10252500D02*
X16860000Y-10272500D01*
X16860000Y-10252500D02*
X16840000Y-10272500D01*
X16862500Y-11895000D02*
X16882500Y-11915000D01*
X16882500Y-11895000D02*
X16862500Y-11915000D01*
X16950000Y-10357500D02*
X16970000Y-10377500D01*
X16970000Y-10357500D02*
X16950000Y-10377500D01*
X16970000Y-11812500D02*
X16990000Y-11832500D01*
X16990000Y-11812500D02*
X16970000Y-11832500D01*
X16975000Y-11982500D02*
X16995000Y-12002500D01*
X16995000Y-11982500D02*
X16975000Y-12002500D01*
X17327500Y-13035000D02*
X17347500Y-13055000D01*
X17347500Y-13035000D02*
X17327500Y-13055000D01*
X17380000Y-13005000D02*
X17400000Y-13025000D01*
X17400000Y-13005000D02*
X17380000Y-13025000D01*
X17430000Y-12947500D02*
X17450000Y-12967500D01*
X17450000Y-12947500D02*
X17430000Y-12967500D01*
X17480000Y-13165000D02*
X17500000Y-13185000D01*
X17500000Y-13165000D02*
X17480000Y-13185000D01*
X14535000Y-12820000D02*
G75*
G02*
X14505000Y-12820000I-15000J0D01*
G01*
X14505000Y-12820000D02*
G75*
G02*
X14535000Y-12820000I15000J0D01*
G01*
X14617500Y-11735000D02*
G75*
G02*
X14587500Y-11735000I-15000J0D01*
G01*
X14587500Y-11735000D02*
G75*
G02*
X14617500Y-11735000I15000J0D01*
G01*
X14655000Y-13147500D02*
G75*
G02*
X14625000Y-13147500I-15000J0D01*
G01*
X14625000Y-13147500D02*
G75*
G02*
X14655000Y-13147500I15000J0D01*
G01*
X14780000Y-11920000D02*
G75*
G02*
X14750000Y-11920000I-15000J0D01*
G01*
X14750000Y-11920000D02*
G75*
G02*
X14780000Y-11920000I15000J0D01*
G01*
X14928326Y-12488326D02*
G75*
G02*
X14898326Y-12488326I-15000J0D01*
G01*
X14898326Y-12488326D02*
G75*
G02*
X14928326Y-12488326I15000J0D01*
G01*
X14943925Y-12409862D02*
G75*
G02*
X14913925Y-12409862I-15000J0D01*
G01*
X14913925Y-12409862D02*
G75*
G02*
X14943925Y-12409862I15000J0D01*
G01*
X14985000Y-12655000D02*
G75*
G02*
X14955000Y-12655000I-15000J0D01*
G01*
X14955000Y-12655000D02*
G75*
G02*
X14985000Y-12655000I15000J0D01*
G01*
X15011893Y-12341893D02*
G75*
G02*
X14981893Y-12341893I-15000J0D01*
G01*
X14981893Y-12341893D02*
G75*
G02*
X15011893Y-12341893I15000J0D01*
G01*
X15108830Y-11933830D02*
G75*
G02*
X15078830Y-11933830I-15000J0D01*
G01*
X15078830Y-11933830D02*
G75*
G02*
X15108830Y-11933830I15000J0D01*
G01*
X15186285Y-11953848D02*
G75*
G02*
X15156285Y-11953848I-15000J0D01*
G01*
X15156285Y-11953848D02*
G75*
G02*
X15186285Y-11953848I15000J0D01*
G01*
X15202500Y-13147500D02*
G75*
G02*
X15172500Y-13147500I-15000J0D01*
G01*
X15172500Y-13147500D02*
G75*
G02*
X15202500Y-13147500I15000J0D01*
G01*
X15470000Y-12880000D02*
G75*
G02*
X15440000Y-12880000I-15000J0D01*
G01*
X15440000Y-12880000D02*
G75*
G02*
X15470000Y-12880000I15000J0D01*
G01*
X16160000Y-11280000D02*
G75*
G02*
X16130000Y-11280000I-15000J0D01*
G01*
X16130000Y-11280000D02*
G75*
G02*
X16160000Y-11280000I15000J0D01*
G01*
X16382500Y-12497500D02*
G75*
G02*
X16352500Y-12497500I-15000J0D01*
G01*
X16352500Y-12497500D02*
G75*
G02*
X16382500Y-12497500I15000J0D01*
G01*
X16470000Y-12037500D02*
G75*
G02*
X16440000Y-12037500I-15000J0D01*
G01*
X16440000Y-12037500D02*
G75*
G02*
X16470000Y-12037500I15000J0D01*
G01*
X16840000Y-12150000D02*
G75*
G02*
X16810000Y-12150000I-15000J0D01*
G01*
X16810000Y-12150000D02*
G75*
G02*
X16840000Y-12150000I15000J0D01*
G01*
X17133965Y-13240000D02*
G75*
G02*
X17103965Y-13240000I-15000J0D01*
G01*
X17103965Y-13240000D02*
G75*
G02*
X17133965Y-13240000I15000J0D01*
G01*
X17203000Y-12423000D02*
G75*
G02*
X17173000Y-12423000I-15000J0D01*
G01*
X17173000Y-12423000D02*
G75*
G02*
X17203000Y-12423000I15000J0D01*
G01*
X17380000Y-12675000D02*
G75*
G02*
X17350000Y-12675000I-15000J0D01*
G01*
X17350000Y-12675000D02*
G75*
G02*
X17380000Y-12675000I15000J0D01*
G01*
X17565000Y-12395000D02*
G75*
G02*
X17535000Y-12395000I-15000J0D01*
G01*
X17535000Y-12395000D02*
G75*
G02*
X17565000Y-12395000I15000J0D01*
G01*
X17580000Y-11337500D02*
G75*
G02*
X17550000Y-11337500I-15000J0D01*
G01*
X17550000Y-11337500D02*
G75*
G02*
X17580000Y-11337500I15000J0D01*
G01*
X17839718Y-12780282D02*
G75*
G02*
X17809718Y-12780282I-15000J0D01*
G01*
X17809718Y-12780282D02*
G75*
G02*
X17839718Y-12780282I15000J0D01*
G01*
X17844859Y-12707641D02*
G75*
G02*
X17814859Y-12707641I-15000J0D01*
G01*
X17814859Y-12707641D02*
G75*
G02*
X17844859Y-12707641I15000J0D01*
G01*
X15713343Y-12826657D02*
X15713343Y-12886657D01*
X15683343Y-12856657D02*
X15743343Y-12856657D01*
X15683343Y-12811657D02*
X15683343Y-12901657D01*
X15743343Y-12901657D02*
G75*
G02*
X15683343Y-12901657I-30000J0D01*
G01*
X15743343Y-12901657D02*
X15743343Y-12811657D01*
X15743343Y-12811657D02*
G75*
G03*
X15683343Y-12811657I-30000J0D01*
G01*
X15713343Y-13247657D02*
X15713343Y-13307657D01*
X15683343Y-13277657D02*
X15743343Y-13277657D01*
X15683343Y-13247657D02*
X15683343Y-13307657D01*
X15743343Y-13307657D02*
G75*
G02*
X15683343Y-13307657I-30000J0D01*
G01*
X15743343Y-13307657D02*
X15743343Y-13247657D01*
X15743343Y-13247657D02*
G75*
G03*
X15683343Y-13247657I-30000J0D01*
G01*
X16577343Y-12826657D02*
X16577343Y-12886657D01*
X16547343Y-12856657D02*
X16607343Y-12856657D01*
X16547343Y-12811656D02*
X16547343Y-12901658D01*
X16607343Y-12901658D02*
G75*
G02*
X16547343Y-12901658I-30000J0D01*
G01*
X16607343Y-12901658D02*
X16607343Y-12811656D01*
X16607343Y-12811656D02*
G75*
G03*
X16547343Y-12811656I-30000J0D01*
G01*
X16577343Y-13247657D02*
X16577343Y-13307657D01*
X16547343Y-13277657D02*
X16607343Y-13277657D01*
X16547343Y-13247657D02*
X16547343Y-13307657D01*
X16607343Y-13307657D02*
G75*
G02*
X16547343Y-13307657I-30000J0D01*
G01*
X16607343Y-13307657D02*
X16607343Y-13247657D01*
X16607343Y-13247657D02*
G75*
G03*
X16547343Y-13247657I-30000J0D01*
G01*
X15881092Y-12934406D02*
X15881092Y-12884908D01*
X15831594Y-12884908D01*
X15831594Y-12934406D01*
X15881092Y-12934406D01*
X16459092Y-12934406D02*
X16459092Y-12884908D01*
X16409594Y-12884908D01*
X16409594Y-12934406D01*
X16459092Y-12934406D01*
X15999000Y-9120000D02*
X16049000Y-9070000D01*
X15999000Y-9020000D01*
X15949000Y-9070000D01*
X15999000Y-9120000D01*
X16799000Y-9120000D02*
X16849000Y-9070000D01*
X16799000Y-9020000D01*
X16749000Y-9070000D01*
X16799000Y-9120000D01*
X17409500Y-9427500D02*
X17459500Y-9377500D01*
X17409500Y-9327500D01*
X17359500Y-9377500D01*
X17409500Y-9427500D01*
X17411000Y-9060000D02*
X17461000Y-9010000D01*
X17411000Y-8960000D01*
X17361000Y-9010000D01*
X17411000Y-9060000D01*
X17663500Y-9427500D02*
X17713500Y-9377500D01*
X17663500Y-9327500D01*
X17613500Y-9377500D01*
X17663500Y-9427500D01*
X17665000Y-9060000D02*
X17715000Y-9010000D01*
X17665000Y-8960000D01*
X17615000Y-9010000D01*
X17665000Y-9060000D01*
X17917500Y-9427500D02*
X17967500Y-9377500D01*
X17917500Y-9327500D01*
X17867500Y-9377500D01*
X17917500Y-9427500D01*
X17919000Y-9060000D02*
X17969000Y-9010000D01*
X17919000Y-8960000D01*
X17869000Y-9010000D01*
X17919000Y-9060000D01*
D13*
X17825000Y-11605000D02*
X17945000Y-11725000D01*
X17945000Y-11605000D02*
X17825000Y-11725000D01*
X17945000Y-11665000D02*
G75*
G02*
X17825000Y-11665000I-60000J0D01*
G01*
X17825000Y-11665000D02*
G75*
G02*
X17945000Y-11665000I60000J0D01*
G01*
X17825000Y-11859000D02*
X17945000Y-11979000D01*
X17945000Y-11859000D02*
X17825000Y-11979000D01*
X17945000Y-11919000D02*
G75*
G02*
X17825000Y-11919000I-60000J0D01*
G01*
X17825000Y-11919000D02*
G75*
G02*
X17945000Y-11919000I60000J0D01*
G01*
D11*
X14493277Y-13711484D02*
X14493277Y-13511484D01*
X14493277Y-13511484D02*
X14540896Y-13511484D01*
X14540896Y-13511484D02*
X14569467Y-13521008D01*
X14569467Y-13521008D02*
X14588515Y-13540055D01*
X14588515Y-13540055D02*
X14598039Y-13559103D01*
X14598039Y-13559103D02*
X14607562Y-13597198D01*
X14607562Y-13597198D02*
X14607562Y-13625769D01*
X14607562Y-13625769D02*
X14598039Y-13663865D01*
X14598039Y-13663865D02*
X14588515Y-13682912D01*
X14588515Y-13682912D02*
X14569467Y-13701960D01*
X14569467Y-13701960D02*
X14540896Y-13711484D01*
X14540896Y-13711484D02*
X14493277Y-13711484D01*
X14693277Y-13711484D02*
X14693277Y-13578150D01*
X14693277Y-13616246D02*
X14702801Y-13597198D01*
X14702801Y-13597198D02*
X14712324Y-13587674D01*
X14712324Y-13587674D02*
X14731372Y-13578150D01*
X14731372Y-13578150D02*
X14750420Y-13578150D01*
X14817086Y-13711484D02*
X14817086Y-13578150D01*
X14817086Y-13511484D02*
X14807562Y-13521008D01*
X14807562Y-13521008D02*
X14817086Y-13530531D01*
X14817086Y-13530531D02*
X14826610Y-13521008D01*
X14826610Y-13521008D02*
X14817086Y-13511484D01*
X14817086Y-13511484D02*
X14817086Y-13530531D01*
X14940896Y-13711484D02*
X14921848Y-13701960D01*
X14921848Y-13701960D02*
X14912324Y-13682912D01*
X14912324Y-13682912D02*
X14912324Y-13511484D01*
X15045658Y-13711484D02*
X15026610Y-13701960D01*
X15026610Y-13701960D02*
X15017086Y-13682912D01*
X15017086Y-13682912D02*
X15017086Y-13511484D01*
X15274229Y-13711484D02*
X15274229Y-13511484D01*
X15274229Y-13511484D02*
X15340896Y-13654341D01*
X15340896Y-13654341D02*
X15407562Y-13511484D01*
X15407562Y-13511484D02*
X15407562Y-13711484D01*
X15588515Y-13711484D02*
X15588515Y-13606722D01*
X15588515Y-13606722D02*
X15578991Y-13587674D01*
X15578991Y-13587674D02*
X15559943Y-13578150D01*
X15559943Y-13578150D02*
X15521848Y-13578150D01*
X15521848Y-13578150D02*
X15502801Y-13587674D01*
X15588515Y-13701960D02*
X15569467Y-13711484D01*
X15569467Y-13711484D02*
X15521848Y-13711484D01*
X15521848Y-13711484D02*
X15502801Y-13701960D01*
X15502801Y-13701960D02*
X15493277Y-13682912D01*
X15493277Y-13682912D02*
X15493277Y-13663865D01*
X15493277Y-13663865D02*
X15502801Y-13644817D01*
X15502801Y-13644817D02*
X15521848Y-13635293D01*
X15521848Y-13635293D02*
X15569467Y-13635293D01*
X15569467Y-13635293D02*
X15588515Y-13625769D01*
X15683753Y-13578150D02*
X15683753Y-13778150D01*
X15683753Y-13587674D02*
X15702801Y-13578150D01*
X15702801Y-13578150D02*
X15740896Y-13578150D01*
X15740896Y-13578150D02*
X15759943Y-13587674D01*
X15759943Y-13587674D02*
X15769467Y-13597198D01*
X15769467Y-13597198D02*
X15778991Y-13616246D01*
X15778991Y-13616246D02*
X15778991Y-13673388D01*
X15778991Y-13673388D02*
X15769467Y-13692436D01*
X15769467Y-13692436D02*
X15759943Y-13701960D01*
X15759943Y-13701960D02*
X15740896Y-13711484D01*
X15740896Y-13711484D02*
X15702801Y-13711484D01*
X15702801Y-13711484D02*
X15683753Y-13701960D01*
X15864705Y-13692436D02*
X15874229Y-13701960D01*
X15874229Y-13701960D02*
X15864705Y-13711484D01*
X15864705Y-13711484D02*
X15855182Y-13701960D01*
X15855182Y-13701960D02*
X15864705Y-13692436D01*
X15864705Y-13692436D02*
X15864705Y-13711484D01*
X15864705Y-13587674D02*
X15874229Y-13597198D01*
X15874229Y-13597198D02*
X15864705Y-13606722D01*
X15864705Y-13606722D02*
X15855182Y-13597198D01*
X15855182Y-13597198D02*
X15864705Y-13587674D01*
X15864705Y-13587674D02*
X15864705Y-13606722D01*
D12*
X14212500Y-14030000D02*
X14232500Y-14050000D01*
X14232500Y-14030000D02*
X14212500Y-14050000D01*
D11*
X14531372Y-13931484D02*
X14550420Y-13931484D01*
X14550420Y-13931484D02*
X14569467Y-13941008D01*
X14569467Y-13941008D02*
X14578991Y-13950531D01*
X14578991Y-13950531D02*
X14588515Y-13969579D01*
X14588515Y-13969579D02*
X14598039Y-14007674D01*
X14598039Y-14007674D02*
X14598039Y-14055293D01*
X14598039Y-14055293D02*
X14588515Y-14093388D01*
X14588515Y-14093388D02*
X14578991Y-14112436D01*
X14578991Y-14112436D02*
X14569467Y-14121960D01*
X14569467Y-14121960D02*
X14550420Y-14131484D01*
X14550420Y-14131484D02*
X14531372Y-14131484D01*
X14531372Y-14131484D02*
X14512324Y-14121960D01*
X14512324Y-14121960D02*
X14502801Y-14112436D01*
X14502801Y-14112436D02*
X14493277Y-14093388D01*
X14493277Y-14093388D02*
X14483753Y-14055293D01*
X14483753Y-14055293D02*
X14483753Y-14007674D01*
X14483753Y-14007674D02*
X14493277Y-13969579D01*
X14493277Y-13969579D02*
X14502801Y-13950531D01*
X14502801Y-13950531D02*
X14512324Y-13941008D01*
X14512324Y-13941008D02*
X14531372Y-13931484D01*
X14683753Y-14112436D02*
X14693277Y-14121960D01*
X14693277Y-14121960D02*
X14683753Y-14131484D01*
X14683753Y-14131484D02*
X14674229Y-14121960D01*
X14674229Y-14121960D02*
X14683753Y-14112436D01*
X14683753Y-14112436D02*
X14683753Y-14131484D01*
X14769467Y-13950531D02*
X14778991Y-13941008D01*
X14778991Y-13941008D02*
X14798039Y-13931484D01*
X14798039Y-13931484D02*
X14845658Y-13931484D01*
X14845658Y-13931484D02*
X14864705Y-13941008D01*
X14864705Y-13941008D02*
X14874229Y-13950531D01*
X14874229Y-13950531D02*
X14883753Y-13969579D01*
X14883753Y-13969579D02*
X14883753Y-13988627D01*
X14883753Y-13988627D02*
X14874229Y-14017198D01*
X14874229Y-14017198D02*
X14759943Y-14131484D01*
X14759943Y-14131484D02*
X14883753Y-14131484D01*
X15007562Y-13931484D02*
X15026610Y-13931484D01*
X15026610Y-13931484D02*
X15045658Y-13941008D01*
X15045658Y-13941008D02*
X15055182Y-13950531D01*
X15055182Y-13950531D02*
X15064705Y-13969579D01*
X15064705Y-13969579D02*
X15074229Y-14007674D01*
X15074229Y-14007674D02*
X15074229Y-14055293D01*
X15074229Y-14055293D02*
X15064705Y-14093388D01*
X15064705Y-14093388D02*
X15055182Y-14112436D01*
X15055182Y-14112436D02*
X15045658Y-14121960D01*
X15045658Y-14121960D02*
X15026610Y-14131484D01*
X15026610Y-14131484D02*
X15007562Y-14131484D01*
X15007562Y-14131484D02*
X14988515Y-14121960D01*
X14988515Y-14121960D02*
X14978991Y-14112436D01*
X14978991Y-14112436D02*
X14969467Y-14093388D01*
X14969467Y-14093388D02*
X14959943Y-14055293D01*
X14959943Y-14055293D02*
X14959943Y-14007674D01*
X14959943Y-14007674D02*
X14969467Y-13969579D01*
X14969467Y-13969579D02*
X14978991Y-13950531D01*
X14978991Y-13950531D02*
X14988515Y-13941008D01*
X14988515Y-13941008D02*
X15007562Y-13931484D01*
X15198039Y-13931484D02*
X15217086Y-13931484D01*
X15217086Y-13931484D02*
X15236134Y-13941008D01*
X15236134Y-13941008D02*
X15245658Y-13950531D01*
X15245658Y-13950531D02*
X15255182Y-13969579D01*
X15255182Y-13969579D02*
X15264705Y-14007674D01*
X15264705Y-14007674D02*
X15264705Y-14055293D01*
X15264705Y-14055293D02*
X15255182Y-14093388D01*
X15255182Y-14093388D02*
X15245658Y-14112436D01*
X15245658Y-14112436D02*
X15236134Y-14121960D01*
X15236134Y-14121960D02*
X15217086Y-14131484D01*
X15217086Y-14131484D02*
X15198039Y-14131484D01*
X15198039Y-14131484D02*
X15178991Y-14121960D01*
X15178991Y-14121960D02*
X15169467Y-14112436D01*
X15169467Y-14112436D02*
X15159943Y-14093388D01*
X15159943Y-14093388D02*
X15150420Y-14055293D01*
X15150420Y-14055293D02*
X15150420Y-14007674D01*
X15150420Y-14007674D02*
X15159943Y-13969579D01*
X15159943Y-13969579D02*
X15169467Y-13950531D01*
X15169467Y-13950531D02*
X15178991Y-13941008D01*
X15178991Y-13941008D02*
X15198039Y-13931484D01*
X15350420Y-14131484D02*
X15350420Y-13998150D01*
X15350420Y-14017198D02*
X15359943Y-14007674D01*
X15359943Y-14007674D02*
X15378991Y-13998150D01*
X15378991Y-13998150D02*
X15407563Y-13998150D01*
X15407563Y-13998150D02*
X15426610Y-14007674D01*
X15426610Y-14007674D02*
X15436134Y-14026722D01*
X15436134Y-14026722D02*
X15436134Y-14131484D01*
X15436134Y-14026722D02*
X15445658Y-14007674D01*
X15445658Y-14007674D02*
X15464705Y-13998150D01*
X15464705Y-13998150D02*
X15493277Y-13998150D01*
X15493277Y-13998150D02*
X15512324Y-14007674D01*
X15512324Y-14007674D02*
X15521848Y-14026722D01*
X15521848Y-14026722D02*
X15521848Y-14131484D01*
X15617086Y-14131484D02*
X15617086Y-13998150D01*
X15617086Y-14017198D02*
X15626610Y-14007674D01*
X15626610Y-14007674D02*
X15645658Y-13998150D01*
X15645658Y-13998150D02*
X15674229Y-13998150D01*
X15674229Y-13998150D02*
X15693277Y-14007674D01*
X15693277Y-14007674D02*
X15702801Y-14026722D01*
X15702801Y-14026722D02*
X15702801Y-14131484D01*
X15702801Y-14026722D02*
X15712324Y-14007674D01*
X15712324Y-14007674D02*
X15731372Y-13998150D01*
X15731372Y-13998150D02*
X15759943Y-13998150D01*
X15759943Y-13998150D02*
X15778991Y-14007674D01*
X15778991Y-14007674D02*
X15788515Y-14026722D01*
X15788515Y-14026722D02*
X15788515Y-14131484D01*
X16178991Y-13921960D02*
X16007563Y-14179103D01*
X16436134Y-13931484D02*
X16455182Y-13931484D01*
X16455182Y-13931484D02*
X16474229Y-13941008D01*
X16474229Y-13941008D02*
X16483753Y-13950531D01*
X16483753Y-13950531D02*
X16493277Y-13969579D01*
X16493277Y-13969579D02*
X16502801Y-14007674D01*
X16502801Y-14007674D02*
X16502801Y-14055293D01*
X16502801Y-14055293D02*
X16493277Y-14093388D01*
X16493277Y-14093388D02*
X16483753Y-14112436D01*
X16483753Y-14112436D02*
X16474229Y-14121960D01*
X16474229Y-14121960D02*
X16455182Y-14131484D01*
X16455182Y-14131484D02*
X16436134Y-14131484D01*
X16436134Y-14131484D02*
X16417086Y-14121960D01*
X16417086Y-14121960D02*
X16407563Y-14112436D01*
X16407563Y-14112436D02*
X16398039Y-14093388D01*
X16398039Y-14093388D02*
X16388515Y-14055293D01*
X16388515Y-14055293D02*
X16388515Y-14007674D01*
X16388515Y-14007674D02*
X16398039Y-13969579D01*
X16398039Y-13969579D02*
X16407563Y-13950531D01*
X16407563Y-13950531D02*
X16417086Y-13941008D01*
X16417086Y-13941008D02*
X16436134Y-13931484D01*
X16588515Y-14112436D02*
X16598039Y-14121960D01*
X16598039Y-14121960D02*
X16588515Y-14131484D01*
X16588515Y-14131484D02*
X16578991Y-14121960D01*
X16578991Y-14121960D02*
X16588515Y-14112436D01*
X16588515Y-14112436D02*
X16588515Y-14131484D01*
X16721848Y-13931484D02*
X16740896Y-13931484D01*
X16740896Y-13931484D02*
X16759944Y-13941008D01*
X16759944Y-13941008D02*
X16769467Y-13950531D01*
X16769467Y-13950531D02*
X16778991Y-13969579D01*
X16778991Y-13969579D02*
X16788515Y-14007674D01*
X16788515Y-14007674D02*
X16788515Y-14055293D01*
X16788515Y-14055293D02*
X16778991Y-14093388D01*
X16778991Y-14093388D02*
X16769467Y-14112436D01*
X16769467Y-14112436D02*
X16759944Y-14121960D01*
X16759944Y-14121960D02*
X16740896Y-14131484D01*
X16740896Y-14131484D02*
X16721848Y-14131484D01*
X16721848Y-14131484D02*
X16702801Y-14121960D01*
X16702801Y-14121960D02*
X16693277Y-14112436D01*
X16693277Y-14112436D02*
X16683753Y-14093388D01*
X16683753Y-14093388D02*
X16674229Y-14055293D01*
X16674229Y-14055293D02*
X16674229Y-14007674D01*
X16674229Y-14007674D02*
X16683753Y-13969579D01*
X16683753Y-13969579D02*
X16693277Y-13950531D01*
X16693277Y-13950531D02*
X16702801Y-13941008D01*
X16702801Y-13941008D02*
X16721848Y-13931484D01*
X16912325Y-13931484D02*
X16931372Y-13931484D01*
X16931372Y-13931484D02*
X16950420Y-13941008D01*
X16950420Y-13941008D02*
X16959944Y-13950531D01*
X16959944Y-13950531D02*
X16969468Y-13969579D01*
X16969468Y-13969579D02*
X16978991Y-14007674D01*
X16978991Y-14007674D02*
X16978991Y-14055293D01*
X16978991Y-14055293D02*
X16969468Y-14093388D01*
X16969468Y-14093388D02*
X16959944Y-14112436D01*
X16959944Y-14112436D02*
X16950420Y-14121960D01*
X16950420Y-14121960D02*
X16931372Y-14131484D01*
X16931372Y-14131484D02*
X16912325Y-14131484D01*
X16912325Y-14131484D02*
X16893277Y-14121960D01*
X16893277Y-14121960D02*
X16883753Y-14112436D01*
X16883753Y-14112436D02*
X16874229Y-14093388D01*
X16874229Y-14093388D02*
X16864706Y-14055293D01*
X16864706Y-14055293D02*
X16864706Y-14007674D01*
X16864706Y-14007674D02*
X16874229Y-13969579D01*
X16874229Y-13969579D02*
X16883753Y-13950531D01*
X16883753Y-13950531D02*
X16893277Y-13941008D01*
X16893277Y-13941008D02*
X16912325Y-13931484D01*
X17045658Y-13931484D02*
X17178991Y-13931484D01*
X17178991Y-13931484D02*
X17093277Y-14131484D01*
X17264706Y-14131484D02*
X17302801Y-14131484D01*
X17302801Y-14131484D02*
X17321849Y-14121960D01*
X17321849Y-14121960D02*
X17331372Y-14112436D01*
X17331372Y-14112436D02*
X17350420Y-14083865D01*
X17350420Y-14083865D02*
X17359944Y-14045769D01*
X17359944Y-14045769D02*
X17359944Y-13969579D01*
X17359944Y-13969579D02*
X17350420Y-13950531D01*
X17350420Y-13950531D02*
X17340896Y-13941008D01*
X17340896Y-13941008D02*
X17321849Y-13931484D01*
X17321849Y-13931484D02*
X17283753Y-13931484D01*
X17283753Y-13931484D02*
X17264706Y-13941008D01*
X17264706Y-13941008D02*
X17255182Y-13950531D01*
X17255182Y-13950531D02*
X17245658Y-13969579D01*
X17245658Y-13969579D02*
X17245658Y-14017198D01*
X17245658Y-14017198D02*
X17255182Y-14036246D01*
X17255182Y-14036246D02*
X17264706Y-14045769D01*
X17264706Y-14045769D02*
X17283753Y-14055293D01*
X17283753Y-14055293D02*
X17321849Y-14055293D01*
X17321849Y-14055293D02*
X17340896Y-14045769D01*
X17340896Y-14045769D02*
X17350420Y-14036246D01*
X17350420Y-14036246D02*
X17359944Y-14017198D01*
X17436134Y-13931484D02*
X17436134Y-13969579D01*
X17512325Y-13931484D02*
X17512325Y-13969579D01*
X17807563Y-14207674D02*
X17798039Y-14198150D01*
X17798039Y-14198150D02*
X17778991Y-14169579D01*
X17778991Y-14169579D02*
X17769468Y-14150531D01*
X17769468Y-14150531D02*
X17759944Y-14121960D01*
X17759944Y-14121960D02*
X17750420Y-14074341D01*
X17750420Y-14074341D02*
X17750420Y-14036246D01*
X17750420Y-14036246D02*
X17759944Y-13988627D01*
X17759944Y-13988627D02*
X17769468Y-13960055D01*
X17769468Y-13960055D02*
X17778991Y-13941008D01*
X17778991Y-13941008D02*
X17798039Y-13912436D01*
X17798039Y-13912436D02*
X17807563Y-13902912D01*
X17864706Y-13931484D02*
X17988515Y-13931484D01*
X17988515Y-13931484D02*
X17921849Y-14007674D01*
X17921849Y-14007674D02*
X17950420Y-14007674D01*
X17950420Y-14007674D02*
X17969468Y-14017198D01*
X17969468Y-14017198D02*
X17978991Y-14026722D01*
X17978991Y-14026722D02*
X17988515Y-14045769D01*
X17988515Y-14045769D02*
X17988515Y-14093388D01*
X17988515Y-14093388D02*
X17978991Y-14112436D01*
X17978991Y-14112436D02*
X17969468Y-14121960D01*
X17969468Y-14121960D02*
X17950420Y-14131484D01*
X17950420Y-14131484D02*
X17893277Y-14131484D01*
X17893277Y-14131484D02*
X17874230Y-14121960D01*
X17874230Y-14121960D02*
X17864706Y-14112436D01*
X18112325Y-13931484D02*
X18131372Y-13931484D01*
X18131372Y-13931484D02*
X18150420Y-13941008D01*
X18150420Y-13941008D02*
X18159944Y-13950531D01*
X18159944Y-13950531D02*
X18169468Y-13969579D01*
X18169468Y-13969579D02*
X18178991Y-14007674D01*
X18178991Y-14007674D02*
X18178991Y-14055293D01*
X18178991Y-14055293D02*
X18169468Y-14093388D01*
X18169468Y-14093388D02*
X18159944Y-14112436D01*
X18159944Y-14112436D02*
X18150420Y-14121960D01*
X18150420Y-14121960D02*
X18131372Y-14131484D01*
X18131372Y-14131484D02*
X18112325Y-14131484D01*
X18112325Y-14131484D02*
X18093277Y-14121960D01*
X18093277Y-14121960D02*
X18083753Y-14112436D01*
X18083753Y-14112436D02*
X18074230Y-14093388D01*
X18074230Y-14093388D02*
X18064706Y-14055293D01*
X18064706Y-14055293D02*
X18064706Y-14007674D01*
X18064706Y-14007674D02*
X18074230Y-13969579D01*
X18074230Y-13969579D02*
X18083753Y-13950531D01*
X18083753Y-13950531D02*
X18093277Y-13941008D01*
X18093277Y-13941008D02*
X18112325Y-13931484D01*
X18417087Y-14131484D02*
X18417087Y-13931484D01*
X18502801Y-14131484D02*
X18502801Y-14026722D01*
X18502801Y-14026722D02*
X18493277Y-14007674D01*
X18493277Y-14007674D02*
X18474230Y-13998150D01*
X18474230Y-13998150D02*
X18445658Y-13998150D01*
X18445658Y-13998150D02*
X18426611Y-14007674D01*
X18426611Y-14007674D02*
X18417087Y-14017198D01*
X18626611Y-14131484D02*
X18607563Y-14121960D01*
X18607563Y-14121960D02*
X18598039Y-14112436D01*
X18598039Y-14112436D02*
X18588515Y-14093388D01*
X18588515Y-14093388D02*
X18588515Y-14036246D01*
X18588515Y-14036246D02*
X18598039Y-14017198D01*
X18598039Y-14017198D02*
X18607563Y-14007674D01*
X18607563Y-14007674D02*
X18626611Y-13998150D01*
X18626611Y-13998150D02*
X18655182Y-13998150D01*
X18655182Y-13998150D02*
X18674230Y-14007674D01*
X18674230Y-14007674D02*
X18683753Y-14017198D01*
X18683753Y-14017198D02*
X18693277Y-14036246D01*
X18693277Y-14036246D02*
X18693277Y-14093388D01*
X18693277Y-14093388D02*
X18683753Y-14112436D01*
X18683753Y-14112436D02*
X18674230Y-14121960D01*
X18674230Y-14121960D02*
X18655182Y-14131484D01*
X18655182Y-14131484D02*
X18626611Y-14131484D01*
X18807563Y-14131484D02*
X18788515Y-14121960D01*
X18788515Y-14121960D02*
X18778992Y-14102912D01*
X18778992Y-14102912D02*
X18778992Y-13931484D01*
X18959944Y-14121960D02*
X18940896Y-14131484D01*
X18940896Y-14131484D02*
X18902801Y-14131484D01*
X18902801Y-14131484D02*
X18883753Y-14121960D01*
X18883753Y-14121960D02*
X18874230Y-14102912D01*
X18874230Y-14102912D02*
X18874230Y-14026722D01*
X18874230Y-14026722D02*
X18883753Y-14007674D01*
X18883753Y-14007674D02*
X18902801Y-13998150D01*
X18902801Y-13998150D02*
X18940896Y-13998150D01*
X18940896Y-13998150D02*
X18959944Y-14007674D01*
X18959944Y-14007674D02*
X18969468Y-14026722D01*
X18969468Y-14026722D02*
X18969468Y-14045769D01*
X18969468Y-14045769D02*
X18874230Y-14064817D01*
X19045658Y-14121960D02*
X19064706Y-14131484D01*
X19064706Y-14131484D02*
X19102801Y-14131484D01*
X19102801Y-14131484D02*
X19121849Y-14121960D01*
X19121849Y-14121960D02*
X19131373Y-14102912D01*
X19131373Y-14102912D02*
X19131373Y-14093388D01*
X19131373Y-14093388D02*
X19121849Y-14074341D01*
X19121849Y-14074341D02*
X19102801Y-14064817D01*
X19102801Y-14064817D02*
X19074230Y-14064817D01*
X19074230Y-14064817D02*
X19055182Y-14055293D01*
X19055182Y-14055293D02*
X19045658Y-14036246D01*
X19045658Y-14036246D02*
X19045658Y-14026722D01*
X19045658Y-14026722D02*
X19055182Y-14007674D01*
X19055182Y-14007674D02*
X19074230Y-13998150D01*
X19074230Y-13998150D02*
X19102801Y-13998150D01*
X19102801Y-13998150D02*
X19121849Y-14007674D01*
X19198039Y-14207674D02*
X19207563Y-14198150D01*
X19207563Y-14198150D02*
X19226611Y-14169579D01*
X19226611Y-14169579D02*
X19236134Y-14150531D01*
X19236134Y-14150531D02*
X19245658Y-14121960D01*
X19245658Y-14121960D02*
X19255182Y-14074341D01*
X19255182Y-14074341D02*
X19255182Y-14036246D01*
X19255182Y-14036246D02*
X19245658Y-13988627D01*
X19245658Y-13988627D02*
X19236134Y-13960055D01*
X19236134Y-13960055D02*
X19226611Y-13941008D01*
X19226611Y-13941008D02*
X19207563Y-13912436D01*
X19207563Y-13912436D02*
X19198039Y-13902912D01*
D12*
X14232500Y-14304000D02*
G75*
G02*
X14202500Y-14304000I-15000J0D01*
G01*
X14202500Y-14304000D02*
G75*
G02*
X14232500Y-14304000I15000J0D01*
G01*
D11*
X14531372Y-14195484D02*
X14550420Y-14195484D01*
X14550420Y-14195484D02*
X14569467Y-14205008D01*
X14569467Y-14205008D02*
X14578991Y-14214531D01*
X14578991Y-14214531D02*
X14588515Y-14233579D01*
X14588515Y-14233579D02*
X14598039Y-14271674D01*
X14598039Y-14271674D02*
X14598039Y-14319293D01*
X14598039Y-14319293D02*
X14588515Y-14357388D01*
X14588515Y-14357388D02*
X14578991Y-14376436D01*
X14578991Y-14376436D02*
X14569467Y-14385960D01*
X14569467Y-14385960D02*
X14550420Y-14395484D01*
X14550420Y-14395484D02*
X14531372Y-14395484D01*
X14531372Y-14395484D02*
X14512324Y-14385960D01*
X14512324Y-14385960D02*
X14502801Y-14376436D01*
X14502801Y-14376436D02*
X14493277Y-14357388D01*
X14493277Y-14357388D02*
X14483753Y-14319293D01*
X14483753Y-14319293D02*
X14483753Y-14271674D01*
X14483753Y-14271674D02*
X14493277Y-14233579D01*
X14493277Y-14233579D02*
X14502801Y-14214531D01*
X14502801Y-14214531D02*
X14512324Y-14205008D01*
X14512324Y-14205008D02*
X14531372Y-14195484D01*
X14683753Y-14376436D02*
X14693277Y-14385960D01*
X14693277Y-14385960D02*
X14683753Y-14395484D01*
X14683753Y-14395484D02*
X14674229Y-14385960D01*
X14674229Y-14385960D02*
X14683753Y-14376436D01*
X14683753Y-14376436D02*
X14683753Y-14395484D01*
X14759943Y-14195484D02*
X14883753Y-14195484D01*
X14883753Y-14195484D02*
X14817086Y-14271674D01*
X14817086Y-14271674D02*
X14845658Y-14271674D01*
X14845658Y-14271674D02*
X14864705Y-14281198D01*
X14864705Y-14281198D02*
X14874229Y-14290722D01*
X14874229Y-14290722D02*
X14883753Y-14309769D01*
X14883753Y-14309769D02*
X14883753Y-14357388D01*
X14883753Y-14357388D02*
X14874229Y-14376436D01*
X14874229Y-14376436D02*
X14864705Y-14385960D01*
X14864705Y-14385960D02*
X14845658Y-14395484D01*
X14845658Y-14395484D02*
X14788515Y-14395484D01*
X14788515Y-14395484D02*
X14769467Y-14385960D01*
X14769467Y-14385960D02*
X14759943Y-14376436D01*
X15007562Y-14195484D02*
X15026610Y-14195484D01*
X15026610Y-14195484D02*
X15045658Y-14205008D01*
X15045658Y-14205008D02*
X15055182Y-14214531D01*
X15055182Y-14214531D02*
X15064705Y-14233579D01*
X15064705Y-14233579D02*
X15074229Y-14271674D01*
X15074229Y-14271674D02*
X15074229Y-14319293D01*
X15074229Y-14319293D02*
X15064705Y-14357388D01*
X15064705Y-14357388D02*
X15055182Y-14376436D01*
X15055182Y-14376436D02*
X15045658Y-14385960D01*
X15045658Y-14385960D02*
X15026610Y-14395484D01*
X15026610Y-14395484D02*
X15007562Y-14395484D01*
X15007562Y-14395484D02*
X14988515Y-14385960D01*
X14988515Y-14385960D02*
X14978991Y-14376436D01*
X14978991Y-14376436D02*
X14969467Y-14357388D01*
X14969467Y-14357388D02*
X14959943Y-14319293D01*
X14959943Y-14319293D02*
X14959943Y-14271674D01*
X14959943Y-14271674D02*
X14969467Y-14233579D01*
X14969467Y-14233579D02*
X14978991Y-14214531D01*
X14978991Y-14214531D02*
X14988515Y-14205008D01*
X14988515Y-14205008D02*
X15007562Y-14195484D01*
X15198039Y-14195484D02*
X15217086Y-14195484D01*
X15217086Y-14195484D02*
X15236134Y-14205008D01*
X15236134Y-14205008D02*
X15245658Y-14214531D01*
X15245658Y-14214531D02*
X15255182Y-14233579D01*
X15255182Y-14233579D02*
X15264705Y-14271674D01*
X15264705Y-14271674D02*
X15264705Y-14319293D01*
X15264705Y-14319293D02*
X15255182Y-14357388D01*
X15255182Y-14357388D02*
X15245658Y-14376436D01*
X15245658Y-14376436D02*
X15236134Y-14385960D01*
X15236134Y-14385960D02*
X15217086Y-14395484D01*
X15217086Y-14395484D02*
X15198039Y-14395484D01*
X15198039Y-14395484D02*
X15178991Y-14385960D01*
X15178991Y-14385960D02*
X15169467Y-14376436D01*
X15169467Y-14376436D02*
X15159943Y-14357388D01*
X15159943Y-14357388D02*
X15150420Y-14319293D01*
X15150420Y-14319293D02*
X15150420Y-14271674D01*
X15150420Y-14271674D02*
X15159943Y-14233579D01*
X15159943Y-14233579D02*
X15169467Y-14214531D01*
X15169467Y-14214531D02*
X15178991Y-14205008D01*
X15178991Y-14205008D02*
X15198039Y-14195484D01*
X15350420Y-14395484D02*
X15350420Y-14262150D01*
X15350420Y-14281198D02*
X15359943Y-14271674D01*
X15359943Y-14271674D02*
X15378991Y-14262150D01*
X15378991Y-14262150D02*
X15407563Y-14262150D01*
X15407563Y-14262150D02*
X15426610Y-14271674D01*
X15426610Y-14271674D02*
X15436134Y-14290722D01*
X15436134Y-14290722D02*
X15436134Y-14395484D01*
X15436134Y-14290722D02*
X15445658Y-14271674D01*
X15445658Y-14271674D02*
X15464705Y-14262150D01*
X15464705Y-14262150D02*
X15493277Y-14262150D01*
X15493277Y-14262150D02*
X15512324Y-14271674D01*
X15512324Y-14271674D02*
X15521848Y-14290722D01*
X15521848Y-14290722D02*
X15521848Y-14395484D01*
X15617086Y-14395484D02*
X15617086Y-14262150D01*
X15617086Y-14281198D02*
X15626610Y-14271674D01*
X15626610Y-14271674D02*
X15645658Y-14262150D01*
X15645658Y-14262150D02*
X15674229Y-14262150D01*
X15674229Y-14262150D02*
X15693277Y-14271674D01*
X15693277Y-14271674D02*
X15702801Y-14290722D01*
X15702801Y-14290722D02*
X15702801Y-14395484D01*
X15702801Y-14290722D02*
X15712324Y-14271674D01*
X15712324Y-14271674D02*
X15731372Y-14262150D01*
X15731372Y-14262150D02*
X15759943Y-14262150D01*
X15759943Y-14262150D02*
X15778991Y-14271674D01*
X15778991Y-14271674D02*
X15788515Y-14290722D01*
X15788515Y-14290722D02*
X15788515Y-14395484D01*
X16178991Y-14185960D02*
X16007563Y-14443103D01*
X16436134Y-14195484D02*
X16455182Y-14195484D01*
X16455182Y-14195484D02*
X16474229Y-14205008D01*
X16474229Y-14205008D02*
X16483753Y-14214531D01*
X16483753Y-14214531D02*
X16493277Y-14233579D01*
X16493277Y-14233579D02*
X16502801Y-14271674D01*
X16502801Y-14271674D02*
X16502801Y-14319293D01*
X16502801Y-14319293D02*
X16493277Y-14357388D01*
X16493277Y-14357388D02*
X16483753Y-14376436D01*
X16483753Y-14376436D02*
X16474229Y-14385960D01*
X16474229Y-14385960D02*
X16455182Y-14395484D01*
X16455182Y-14395484D02*
X16436134Y-14395484D01*
X16436134Y-14395484D02*
X16417086Y-14385960D01*
X16417086Y-14385960D02*
X16407563Y-14376436D01*
X16407563Y-14376436D02*
X16398039Y-14357388D01*
X16398039Y-14357388D02*
X16388515Y-14319293D01*
X16388515Y-14319293D02*
X16388515Y-14271674D01*
X16388515Y-14271674D02*
X16398039Y-14233579D01*
X16398039Y-14233579D02*
X16407563Y-14214531D01*
X16407563Y-14214531D02*
X16417086Y-14205008D01*
X16417086Y-14205008D02*
X16436134Y-14195484D01*
X16588515Y-14376436D02*
X16598039Y-14385960D01*
X16598039Y-14385960D02*
X16588515Y-14395484D01*
X16588515Y-14395484D02*
X16578991Y-14385960D01*
X16578991Y-14385960D02*
X16588515Y-14376436D01*
X16588515Y-14376436D02*
X16588515Y-14395484D01*
X16721848Y-14195484D02*
X16740896Y-14195484D01*
X16740896Y-14195484D02*
X16759944Y-14205008D01*
X16759944Y-14205008D02*
X16769467Y-14214531D01*
X16769467Y-14214531D02*
X16778991Y-14233579D01*
X16778991Y-14233579D02*
X16788515Y-14271674D01*
X16788515Y-14271674D02*
X16788515Y-14319293D01*
X16788515Y-14319293D02*
X16778991Y-14357388D01*
X16778991Y-14357388D02*
X16769467Y-14376436D01*
X16769467Y-14376436D02*
X16759944Y-14385960D01*
X16759944Y-14385960D02*
X16740896Y-14395484D01*
X16740896Y-14395484D02*
X16721848Y-14395484D01*
X16721848Y-14395484D02*
X16702801Y-14385960D01*
X16702801Y-14385960D02*
X16693277Y-14376436D01*
X16693277Y-14376436D02*
X16683753Y-14357388D01*
X16683753Y-14357388D02*
X16674229Y-14319293D01*
X16674229Y-14319293D02*
X16674229Y-14271674D01*
X16674229Y-14271674D02*
X16683753Y-14233579D01*
X16683753Y-14233579D02*
X16693277Y-14214531D01*
X16693277Y-14214531D02*
X16702801Y-14205008D01*
X16702801Y-14205008D02*
X16721848Y-14195484D01*
X16978991Y-14395484D02*
X16864706Y-14395484D01*
X16921848Y-14395484D02*
X16921848Y-14195484D01*
X16921848Y-14195484D02*
X16902801Y-14224055D01*
X16902801Y-14224055D02*
X16883753Y-14243103D01*
X16883753Y-14243103D02*
X16864706Y-14252627D01*
X17169468Y-14395484D02*
X17055182Y-14395484D01*
X17112325Y-14395484D02*
X17112325Y-14195484D01*
X17112325Y-14195484D02*
X17093277Y-14224055D01*
X17093277Y-14224055D02*
X17074229Y-14243103D01*
X17074229Y-14243103D02*
X17055182Y-14252627D01*
X17283753Y-14281198D02*
X17264706Y-14271674D01*
X17264706Y-14271674D02*
X17255182Y-14262150D01*
X17255182Y-14262150D02*
X17245658Y-14243103D01*
X17245658Y-14243103D02*
X17245658Y-14233579D01*
X17245658Y-14233579D02*
X17255182Y-14214531D01*
X17255182Y-14214531D02*
X17264706Y-14205008D01*
X17264706Y-14205008D02*
X17283753Y-14195484D01*
X17283753Y-14195484D02*
X17321849Y-14195484D01*
X17321849Y-14195484D02*
X17340896Y-14205008D01*
X17340896Y-14205008D02*
X17350420Y-14214531D01*
X17350420Y-14214531D02*
X17359944Y-14233579D01*
X17359944Y-14233579D02*
X17359944Y-14243103D01*
X17359944Y-14243103D02*
X17350420Y-14262150D01*
X17350420Y-14262150D02*
X17340896Y-14271674D01*
X17340896Y-14271674D02*
X17321849Y-14281198D01*
X17321849Y-14281198D02*
X17283753Y-14281198D01*
X17283753Y-14281198D02*
X17264706Y-14290722D01*
X17264706Y-14290722D02*
X17255182Y-14300246D01*
X17255182Y-14300246D02*
X17245658Y-14319293D01*
X17245658Y-14319293D02*
X17245658Y-14357388D01*
X17245658Y-14357388D02*
X17255182Y-14376436D01*
X17255182Y-14376436D02*
X17264706Y-14385960D01*
X17264706Y-14385960D02*
X17283753Y-14395484D01*
X17283753Y-14395484D02*
X17321849Y-14395484D01*
X17321849Y-14395484D02*
X17340896Y-14385960D01*
X17340896Y-14385960D02*
X17350420Y-14376436D01*
X17350420Y-14376436D02*
X17359944Y-14357388D01*
X17359944Y-14357388D02*
X17359944Y-14319293D01*
X17359944Y-14319293D02*
X17350420Y-14300246D01*
X17350420Y-14300246D02*
X17340896Y-14290722D01*
X17340896Y-14290722D02*
X17321849Y-14281198D01*
X17436134Y-14195484D02*
X17436134Y-14233579D01*
X17512325Y-14195484D02*
X17512325Y-14233579D01*
X17807563Y-14471674D02*
X17798039Y-14462150D01*
X17798039Y-14462150D02*
X17778991Y-14433579D01*
X17778991Y-14433579D02*
X17769468Y-14414531D01*
X17769468Y-14414531D02*
X17759944Y-14385960D01*
X17759944Y-14385960D02*
X17750420Y-14338341D01*
X17750420Y-14338341D02*
X17750420Y-14300246D01*
X17750420Y-14300246D02*
X17759944Y-14252627D01*
X17759944Y-14252627D02*
X17769468Y-14224055D01*
X17769468Y-14224055D02*
X17778991Y-14205008D01*
X17778991Y-14205008D02*
X17798039Y-14176436D01*
X17798039Y-14176436D02*
X17807563Y-14166912D01*
X17874230Y-14214531D02*
X17883753Y-14205008D01*
X17883753Y-14205008D02*
X17902801Y-14195484D01*
X17902801Y-14195484D02*
X17950420Y-14195484D01*
X17950420Y-14195484D02*
X17969468Y-14205008D01*
X17969468Y-14205008D02*
X17978991Y-14214531D01*
X17978991Y-14214531D02*
X17988515Y-14233579D01*
X17988515Y-14233579D02*
X17988515Y-14252627D01*
X17988515Y-14252627D02*
X17978991Y-14281198D01*
X17978991Y-14281198D02*
X17864706Y-14395484D01*
X17864706Y-14395484D02*
X17988515Y-14395484D01*
X18055182Y-14195484D02*
X18178991Y-14195484D01*
X18178991Y-14195484D02*
X18112325Y-14271674D01*
X18112325Y-14271674D02*
X18140896Y-14271674D01*
X18140896Y-14271674D02*
X18159944Y-14281198D01*
X18159944Y-14281198D02*
X18169468Y-14290722D01*
X18169468Y-14290722D02*
X18178991Y-14309769D01*
X18178991Y-14309769D02*
X18178991Y-14357388D01*
X18178991Y-14357388D02*
X18169468Y-14376436D01*
X18169468Y-14376436D02*
X18159944Y-14385960D01*
X18159944Y-14385960D02*
X18140896Y-14395484D01*
X18140896Y-14395484D02*
X18083753Y-14395484D01*
X18083753Y-14395484D02*
X18064706Y-14385960D01*
X18064706Y-14385960D02*
X18055182Y-14376436D01*
X18417087Y-14395484D02*
X18417087Y-14195484D01*
X18502801Y-14395484D02*
X18502801Y-14290722D01*
X18502801Y-14290722D02*
X18493277Y-14271674D01*
X18493277Y-14271674D02*
X18474230Y-14262150D01*
X18474230Y-14262150D02*
X18445658Y-14262150D01*
X18445658Y-14262150D02*
X18426611Y-14271674D01*
X18426611Y-14271674D02*
X18417087Y-14281198D01*
X18626611Y-14395484D02*
X18607563Y-14385960D01*
X18607563Y-14385960D02*
X18598039Y-14376436D01*
X18598039Y-14376436D02*
X18588515Y-14357388D01*
X18588515Y-14357388D02*
X18588515Y-14300246D01*
X18588515Y-14300246D02*
X18598039Y-14281198D01*
X18598039Y-14281198D02*
X18607563Y-14271674D01*
X18607563Y-14271674D02*
X18626611Y-14262150D01*
X18626611Y-14262150D02*
X18655182Y-14262150D01*
X18655182Y-14262150D02*
X18674230Y-14271674D01*
X18674230Y-14271674D02*
X18683753Y-14281198D01*
X18683753Y-14281198D02*
X18693277Y-14300246D01*
X18693277Y-14300246D02*
X18693277Y-14357388D01*
X18693277Y-14357388D02*
X18683753Y-14376436D01*
X18683753Y-14376436D02*
X18674230Y-14385960D01*
X18674230Y-14385960D02*
X18655182Y-14395484D01*
X18655182Y-14395484D02*
X18626611Y-14395484D01*
X18807563Y-14395484D02*
X18788515Y-14385960D01*
X18788515Y-14385960D02*
X18778992Y-14366912D01*
X18778992Y-14366912D02*
X18778992Y-14195484D01*
X18959944Y-14385960D02*
X18940896Y-14395484D01*
X18940896Y-14395484D02*
X18902801Y-14395484D01*
X18902801Y-14395484D02*
X18883753Y-14385960D01*
X18883753Y-14385960D02*
X18874230Y-14366912D01*
X18874230Y-14366912D02*
X18874230Y-14290722D01*
X18874230Y-14290722D02*
X18883753Y-14271674D01*
X18883753Y-14271674D02*
X18902801Y-14262150D01*
X18902801Y-14262150D02*
X18940896Y-14262150D01*
X18940896Y-14262150D02*
X18959944Y-14271674D01*
X18959944Y-14271674D02*
X18969468Y-14290722D01*
X18969468Y-14290722D02*
X18969468Y-14309769D01*
X18969468Y-14309769D02*
X18874230Y-14328817D01*
X19045658Y-14385960D02*
X19064706Y-14395484D01*
X19064706Y-14395484D02*
X19102801Y-14395484D01*
X19102801Y-14395484D02*
X19121849Y-14385960D01*
X19121849Y-14385960D02*
X19131373Y-14366912D01*
X19131373Y-14366912D02*
X19131373Y-14357388D01*
X19131373Y-14357388D02*
X19121849Y-14338341D01*
X19121849Y-14338341D02*
X19102801Y-14328817D01*
X19102801Y-14328817D02*
X19074230Y-14328817D01*
X19074230Y-14328817D02*
X19055182Y-14319293D01*
X19055182Y-14319293D02*
X19045658Y-14300246D01*
X19045658Y-14300246D02*
X19045658Y-14290722D01*
X19045658Y-14290722D02*
X19055182Y-14271674D01*
X19055182Y-14271674D02*
X19074230Y-14262150D01*
X19074230Y-14262150D02*
X19102801Y-14262150D01*
X19102801Y-14262150D02*
X19121849Y-14271674D01*
X19198039Y-14471674D02*
X19207563Y-14462150D01*
X19207563Y-14462150D02*
X19226611Y-14433579D01*
X19226611Y-14433579D02*
X19236134Y-14414531D01*
X19236134Y-14414531D02*
X19245658Y-14385960D01*
X19245658Y-14385960D02*
X19255182Y-14338341D01*
X19255182Y-14338341D02*
X19255182Y-14300246D01*
X19255182Y-14300246D02*
X19245658Y-14252627D01*
X19245658Y-14252627D02*
X19236134Y-14224055D01*
X19236134Y-14224055D02*
X19226611Y-14205008D01*
X19226611Y-14205008D02*
X19207563Y-14176436D01*
X19207563Y-14176436D02*
X19198039Y-14166912D01*
D12*
X14202500Y-14538000D02*
X14202500Y-14598000D01*
X14172500Y-14568000D02*
X14232500Y-14568000D01*
D11*
X14531372Y-14459484D02*
X14550420Y-14459484D01*
X14550420Y-14459484D02*
X14569467Y-14469008D01*
X14569467Y-14469008D02*
X14578991Y-14478531D01*
X14578991Y-14478531D02*
X14588515Y-14497579D01*
X14588515Y-14497579D02*
X14598039Y-14535674D01*
X14598039Y-14535674D02*
X14598039Y-14583293D01*
X14598039Y-14583293D02*
X14588515Y-14621388D01*
X14588515Y-14621388D02*
X14578991Y-14640436D01*
X14578991Y-14640436D02*
X14569467Y-14649960D01*
X14569467Y-14649960D02*
X14550420Y-14659484D01*
X14550420Y-14659484D02*
X14531372Y-14659484D01*
X14531372Y-14659484D02*
X14512324Y-14649960D01*
X14512324Y-14649960D02*
X14502801Y-14640436D01*
X14502801Y-14640436D02*
X14493277Y-14621388D01*
X14493277Y-14621388D02*
X14483753Y-14583293D01*
X14483753Y-14583293D02*
X14483753Y-14535674D01*
X14483753Y-14535674D02*
X14493277Y-14497579D01*
X14493277Y-14497579D02*
X14502801Y-14478531D01*
X14502801Y-14478531D02*
X14512324Y-14469008D01*
X14512324Y-14469008D02*
X14531372Y-14459484D01*
X14683753Y-14640436D02*
X14693277Y-14649960D01*
X14693277Y-14649960D02*
X14683753Y-14659484D01*
X14683753Y-14659484D02*
X14674229Y-14649960D01*
X14674229Y-14649960D02*
X14683753Y-14640436D01*
X14683753Y-14640436D02*
X14683753Y-14659484D01*
X14864705Y-14459484D02*
X14826610Y-14459484D01*
X14826610Y-14459484D02*
X14807562Y-14469008D01*
X14807562Y-14469008D02*
X14798039Y-14478531D01*
X14798039Y-14478531D02*
X14778991Y-14507103D01*
X14778991Y-14507103D02*
X14769467Y-14545198D01*
X14769467Y-14545198D02*
X14769467Y-14621388D01*
X14769467Y-14621388D02*
X14778991Y-14640436D01*
X14778991Y-14640436D02*
X14788515Y-14649960D01*
X14788515Y-14649960D02*
X14807562Y-14659484D01*
X14807562Y-14659484D02*
X14845658Y-14659484D01*
X14845658Y-14659484D02*
X14864705Y-14649960D01*
X14864705Y-14649960D02*
X14874229Y-14640436D01*
X14874229Y-14640436D02*
X14883753Y-14621388D01*
X14883753Y-14621388D02*
X14883753Y-14573769D01*
X14883753Y-14573769D02*
X14874229Y-14554722D01*
X14874229Y-14554722D02*
X14864705Y-14545198D01*
X14864705Y-14545198D02*
X14845658Y-14535674D01*
X14845658Y-14535674D02*
X14807562Y-14535674D01*
X14807562Y-14535674D02*
X14788515Y-14545198D01*
X14788515Y-14545198D02*
X14778991Y-14554722D01*
X14778991Y-14554722D02*
X14769467Y-14573769D01*
X15007562Y-14459484D02*
X15026610Y-14459484D01*
X15026610Y-14459484D02*
X15045658Y-14469008D01*
X15045658Y-14469008D02*
X15055182Y-14478531D01*
X15055182Y-14478531D02*
X15064705Y-14497579D01*
X15064705Y-14497579D02*
X15074229Y-14535674D01*
X15074229Y-14535674D02*
X15074229Y-14583293D01*
X15074229Y-14583293D02*
X15064705Y-14621388D01*
X15064705Y-14621388D02*
X15055182Y-14640436D01*
X15055182Y-14640436D02*
X15045658Y-14649960D01*
X15045658Y-14649960D02*
X15026610Y-14659484D01*
X15026610Y-14659484D02*
X15007562Y-14659484D01*
X15007562Y-14659484D02*
X14988515Y-14649960D01*
X14988515Y-14649960D02*
X14978991Y-14640436D01*
X14978991Y-14640436D02*
X14969467Y-14621388D01*
X14969467Y-14621388D02*
X14959943Y-14583293D01*
X14959943Y-14583293D02*
X14959943Y-14535674D01*
X14959943Y-14535674D02*
X14969467Y-14497579D01*
X14969467Y-14497579D02*
X14978991Y-14478531D01*
X14978991Y-14478531D02*
X14988515Y-14469008D01*
X14988515Y-14469008D02*
X15007562Y-14459484D01*
X15198039Y-14459484D02*
X15217086Y-14459484D01*
X15217086Y-14459484D02*
X15236134Y-14469008D01*
X15236134Y-14469008D02*
X15245658Y-14478531D01*
X15245658Y-14478531D02*
X15255182Y-14497579D01*
X15255182Y-14497579D02*
X15264705Y-14535674D01*
X15264705Y-14535674D02*
X15264705Y-14583293D01*
X15264705Y-14583293D02*
X15255182Y-14621388D01*
X15255182Y-14621388D02*
X15245658Y-14640436D01*
X15245658Y-14640436D02*
X15236134Y-14649960D01*
X15236134Y-14649960D02*
X15217086Y-14659484D01*
X15217086Y-14659484D02*
X15198039Y-14659484D01*
X15198039Y-14659484D02*
X15178991Y-14649960D01*
X15178991Y-14649960D02*
X15169467Y-14640436D01*
X15169467Y-14640436D02*
X15159943Y-14621388D01*
X15159943Y-14621388D02*
X15150420Y-14583293D01*
X15150420Y-14583293D02*
X15150420Y-14535674D01*
X15150420Y-14535674D02*
X15159943Y-14497579D01*
X15159943Y-14497579D02*
X15169467Y-14478531D01*
X15169467Y-14478531D02*
X15178991Y-14469008D01*
X15178991Y-14469008D02*
X15198039Y-14459484D01*
X15350420Y-14659484D02*
X15350420Y-14526150D01*
X15350420Y-14545198D02*
X15359943Y-14535674D01*
X15359943Y-14535674D02*
X15378991Y-14526150D01*
X15378991Y-14526150D02*
X15407563Y-14526150D01*
X15407563Y-14526150D02*
X15426610Y-14535674D01*
X15426610Y-14535674D02*
X15436134Y-14554722D01*
X15436134Y-14554722D02*
X15436134Y-14659484D01*
X15436134Y-14554722D02*
X15445658Y-14535674D01*
X15445658Y-14535674D02*
X15464705Y-14526150D01*
X15464705Y-14526150D02*
X15493277Y-14526150D01*
X15493277Y-14526150D02*
X15512324Y-14535674D01*
X15512324Y-14535674D02*
X15521848Y-14554722D01*
X15521848Y-14554722D02*
X15521848Y-14659484D01*
X15617086Y-14659484D02*
X15617086Y-14526150D01*
X15617086Y-14545198D02*
X15626610Y-14535674D01*
X15626610Y-14535674D02*
X15645658Y-14526150D01*
X15645658Y-14526150D02*
X15674229Y-14526150D01*
X15674229Y-14526150D02*
X15693277Y-14535674D01*
X15693277Y-14535674D02*
X15702801Y-14554722D01*
X15702801Y-14554722D02*
X15702801Y-14659484D01*
X15702801Y-14554722D02*
X15712324Y-14535674D01*
X15712324Y-14535674D02*
X15731372Y-14526150D01*
X15731372Y-14526150D02*
X15759943Y-14526150D01*
X15759943Y-14526150D02*
X15778991Y-14535674D01*
X15778991Y-14535674D02*
X15788515Y-14554722D01*
X15788515Y-14554722D02*
X15788515Y-14659484D01*
X16178991Y-14449960D02*
X16007563Y-14707103D01*
X16436134Y-14459484D02*
X16455182Y-14459484D01*
X16455182Y-14459484D02*
X16474229Y-14469008D01*
X16474229Y-14469008D02*
X16483753Y-14478531D01*
X16483753Y-14478531D02*
X16493277Y-14497579D01*
X16493277Y-14497579D02*
X16502801Y-14535674D01*
X16502801Y-14535674D02*
X16502801Y-14583293D01*
X16502801Y-14583293D02*
X16493277Y-14621388D01*
X16493277Y-14621388D02*
X16483753Y-14640436D01*
X16483753Y-14640436D02*
X16474229Y-14649960D01*
X16474229Y-14649960D02*
X16455182Y-14659484D01*
X16455182Y-14659484D02*
X16436134Y-14659484D01*
X16436134Y-14659484D02*
X16417086Y-14649960D01*
X16417086Y-14649960D02*
X16407563Y-14640436D01*
X16407563Y-14640436D02*
X16398039Y-14621388D01*
X16398039Y-14621388D02*
X16388515Y-14583293D01*
X16388515Y-14583293D02*
X16388515Y-14535674D01*
X16388515Y-14535674D02*
X16398039Y-14497579D01*
X16398039Y-14497579D02*
X16407563Y-14478531D01*
X16407563Y-14478531D02*
X16417086Y-14469008D01*
X16417086Y-14469008D02*
X16436134Y-14459484D01*
X16588515Y-14640436D02*
X16598039Y-14649960D01*
X16598039Y-14649960D02*
X16588515Y-14659484D01*
X16588515Y-14659484D02*
X16578991Y-14649960D01*
X16578991Y-14649960D02*
X16588515Y-14640436D01*
X16588515Y-14640436D02*
X16588515Y-14659484D01*
X16721848Y-14459484D02*
X16740896Y-14459484D01*
X16740896Y-14459484D02*
X16759944Y-14469008D01*
X16759944Y-14469008D02*
X16769467Y-14478531D01*
X16769467Y-14478531D02*
X16778991Y-14497579D01*
X16778991Y-14497579D02*
X16788515Y-14535674D01*
X16788515Y-14535674D02*
X16788515Y-14583293D01*
X16788515Y-14583293D02*
X16778991Y-14621388D01*
X16778991Y-14621388D02*
X16769467Y-14640436D01*
X16769467Y-14640436D02*
X16759944Y-14649960D01*
X16759944Y-14649960D02*
X16740896Y-14659484D01*
X16740896Y-14659484D02*
X16721848Y-14659484D01*
X16721848Y-14659484D02*
X16702801Y-14649960D01*
X16702801Y-14649960D02*
X16693277Y-14640436D01*
X16693277Y-14640436D02*
X16683753Y-14621388D01*
X16683753Y-14621388D02*
X16674229Y-14583293D01*
X16674229Y-14583293D02*
X16674229Y-14535674D01*
X16674229Y-14535674D02*
X16683753Y-14497579D01*
X16683753Y-14497579D02*
X16693277Y-14478531D01*
X16693277Y-14478531D02*
X16702801Y-14469008D01*
X16702801Y-14469008D02*
X16721848Y-14459484D01*
X16864706Y-14478531D02*
X16874229Y-14469008D01*
X16874229Y-14469008D02*
X16893277Y-14459484D01*
X16893277Y-14459484D02*
X16940896Y-14459484D01*
X16940896Y-14459484D02*
X16959944Y-14469008D01*
X16959944Y-14469008D02*
X16969468Y-14478531D01*
X16969468Y-14478531D02*
X16978991Y-14497579D01*
X16978991Y-14497579D02*
X16978991Y-14516627D01*
X16978991Y-14516627D02*
X16969468Y-14545198D01*
X16969468Y-14545198D02*
X16855182Y-14659484D01*
X16855182Y-14659484D02*
X16978991Y-14659484D01*
X17045658Y-14459484D02*
X17169468Y-14459484D01*
X17169468Y-14459484D02*
X17102801Y-14535674D01*
X17102801Y-14535674D02*
X17131372Y-14535674D01*
X17131372Y-14535674D02*
X17150420Y-14545198D01*
X17150420Y-14545198D02*
X17159944Y-14554722D01*
X17159944Y-14554722D02*
X17169468Y-14573769D01*
X17169468Y-14573769D02*
X17169468Y-14621388D01*
X17169468Y-14621388D02*
X17159944Y-14640436D01*
X17159944Y-14640436D02*
X17150420Y-14649960D01*
X17150420Y-14649960D02*
X17131372Y-14659484D01*
X17131372Y-14659484D02*
X17074229Y-14659484D01*
X17074229Y-14659484D02*
X17055182Y-14649960D01*
X17055182Y-14649960D02*
X17045658Y-14640436D01*
X17340896Y-14459484D02*
X17302801Y-14459484D01*
X17302801Y-14459484D02*
X17283753Y-14469008D01*
X17283753Y-14469008D02*
X17274229Y-14478531D01*
X17274229Y-14478531D02*
X17255182Y-14507103D01*
X17255182Y-14507103D02*
X17245658Y-14545198D01*
X17245658Y-14545198D02*
X17245658Y-14621388D01*
X17245658Y-14621388D02*
X17255182Y-14640436D01*
X17255182Y-14640436D02*
X17264706Y-14649960D01*
X17264706Y-14649960D02*
X17283753Y-14659484D01*
X17283753Y-14659484D02*
X17321849Y-14659484D01*
X17321849Y-14659484D02*
X17340896Y-14649960D01*
X17340896Y-14649960D02*
X17350420Y-14640436D01*
X17350420Y-14640436D02*
X17359944Y-14621388D01*
X17359944Y-14621388D02*
X17359944Y-14573769D01*
X17359944Y-14573769D02*
X17350420Y-14554722D01*
X17350420Y-14554722D02*
X17340896Y-14545198D01*
X17340896Y-14545198D02*
X17321849Y-14535674D01*
X17321849Y-14535674D02*
X17283753Y-14535674D01*
X17283753Y-14535674D02*
X17264706Y-14545198D01*
X17264706Y-14545198D02*
X17255182Y-14554722D01*
X17255182Y-14554722D02*
X17245658Y-14573769D01*
X17436134Y-14459484D02*
X17436134Y-14497579D01*
X17512325Y-14459484D02*
X17512325Y-14497579D01*
X17807563Y-14735674D02*
X17798039Y-14726150D01*
X17798039Y-14726150D02*
X17778991Y-14697579D01*
X17778991Y-14697579D02*
X17769468Y-14678531D01*
X17769468Y-14678531D02*
X17759944Y-14649960D01*
X17759944Y-14649960D02*
X17750420Y-14602341D01*
X17750420Y-14602341D02*
X17750420Y-14564246D01*
X17750420Y-14564246D02*
X17759944Y-14516627D01*
X17759944Y-14516627D02*
X17769468Y-14488055D01*
X17769468Y-14488055D02*
X17778991Y-14469008D01*
X17778991Y-14469008D02*
X17798039Y-14440436D01*
X17798039Y-14440436D02*
X17807563Y-14430912D01*
X17921849Y-14459484D02*
X17940896Y-14459484D01*
X17940896Y-14459484D02*
X17959944Y-14469008D01*
X17959944Y-14469008D02*
X17969468Y-14478531D01*
X17969468Y-14478531D02*
X17978991Y-14497579D01*
X17978991Y-14497579D02*
X17988515Y-14535674D01*
X17988515Y-14535674D02*
X17988515Y-14583293D01*
X17988515Y-14583293D02*
X17978991Y-14621388D01*
X17978991Y-14621388D02*
X17969468Y-14640436D01*
X17969468Y-14640436D02*
X17959944Y-14649960D01*
X17959944Y-14649960D02*
X17940896Y-14659484D01*
X17940896Y-14659484D02*
X17921849Y-14659484D01*
X17921849Y-14659484D02*
X17902801Y-14649960D01*
X17902801Y-14649960D02*
X17893277Y-14640436D01*
X17893277Y-14640436D02*
X17883753Y-14621388D01*
X17883753Y-14621388D02*
X17874230Y-14583293D01*
X17874230Y-14583293D02*
X17874230Y-14535674D01*
X17874230Y-14535674D02*
X17883753Y-14497579D01*
X17883753Y-14497579D02*
X17893277Y-14478531D01*
X17893277Y-14478531D02*
X17902801Y-14469008D01*
X17902801Y-14469008D02*
X17921849Y-14459484D01*
X18226611Y-14659484D02*
X18226611Y-14459484D01*
X18312325Y-14659484D02*
X18312325Y-14554722D01*
X18312325Y-14554722D02*
X18302801Y-14535674D01*
X18302801Y-14535674D02*
X18283753Y-14526150D01*
X18283753Y-14526150D02*
X18255182Y-14526150D01*
X18255182Y-14526150D02*
X18236134Y-14535674D01*
X18236134Y-14535674D02*
X18226611Y-14545198D01*
X18436134Y-14659484D02*
X18417087Y-14649960D01*
X18417087Y-14649960D02*
X18407563Y-14640436D01*
X18407563Y-14640436D02*
X18398039Y-14621388D01*
X18398039Y-14621388D02*
X18398039Y-14564246D01*
X18398039Y-14564246D02*
X18407563Y-14545198D01*
X18407563Y-14545198D02*
X18417087Y-14535674D01*
X18417087Y-14535674D02*
X18436134Y-14526150D01*
X18436134Y-14526150D02*
X18464706Y-14526150D01*
X18464706Y-14526150D02*
X18483753Y-14535674D01*
X18483753Y-14535674D02*
X18493277Y-14545198D01*
X18493277Y-14545198D02*
X18502801Y-14564246D01*
X18502801Y-14564246D02*
X18502801Y-14621388D01*
X18502801Y-14621388D02*
X18493277Y-14640436D01*
X18493277Y-14640436D02*
X18483753Y-14649960D01*
X18483753Y-14649960D02*
X18464706Y-14659484D01*
X18464706Y-14659484D02*
X18436134Y-14659484D01*
X18617087Y-14659484D02*
X18598039Y-14649960D01*
X18598039Y-14649960D02*
X18588515Y-14630912D01*
X18588515Y-14630912D02*
X18588515Y-14459484D01*
X18769468Y-14649960D02*
X18750420Y-14659484D01*
X18750420Y-14659484D02*
X18712325Y-14659484D01*
X18712325Y-14659484D02*
X18693277Y-14649960D01*
X18693277Y-14649960D02*
X18683753Y-14630912D01*
X18683753Y-14630912D02*
X18683753Y-14554722D01*
X18683753Y-14554722D02*
X18693277Y-14535674D01*
X18693277Y-14535674D02*
X18712325Y-14526150D01*
X18712325Y-14526150D02*
X18750420Y-14526150D01*
X18750420Y-14526150D02*
X18769468Y-14535674D01*
X18769468Y-14535674D02*
X18778992Y-14554722D01*
X18778992Y-14554722D02*
X18778992Y-14573769D01*
X18778992Y-14573769D02*
X18683753Y-14592817D01*
X18855182Y-14649960D02*
X18874230Y-14659484D01*
X18874230Y-14659484D02*
X18912325Y-14659484D01*
X18912325Y-14659484D02*
X18931373Y-14649960D01*
X18931373Y-14649960D02*
X18940896Y-14630912D01*
X18940896Y-14630912D02*
X18940896Y-14621388D01*
X18940896Y-14621388D02*
X18931373Y-14602341D01*
X18931373Y-14602341D02*
X18912325Y-14592817D01*
X18912325Y-14592817D02*
X18883753Y-14592817D01*
X18883753Y-14592817D02*
X18864706Y-14583293D01*
X18864706Y-14583293D02*
X18855182Y-14564246D01*
X18855182Y-14564246D02*
X18855182Y-14554722D01*
X18855182Y-14554722D02*
X18864706Y-14535674D01*
X18864706Y-14535674D02*
X18883753Y-14526150D01*
X18883753Y-14526150D02*
X18912325Y-14526150D01*
X18912325Y-14526150D02*
X18931373Y-14535674D01*
X19178992Y-14583293D02*
X19331373Y-14583293D01*
X19255182Y-14659484D02*
X19255182Y-14507103D01*
X19664706Y-14526150D02*
X19664706Y-14659484D01*
X19617087Y-14449960D02*
X19569468Y-14592817D01*
X19569468Y-14592817D02*
X19693277Y-14592817D01*
X19912325Y-14649960D02*
X19931373Y-14659484D01*
X19931373Y-14659484D02*
X19969468Y-14659484D01*
X19969468Y-14659484D02*
X19988516Y-14649960D01*
X19988516Y-14649960D02*
X19998039Y-14630912D01*
X19998039Y-14630912D02*
X19998039Y-14621388D01*
X19998039Y-14621388D02*
X19988516Y-14602341D01*
X19988516Y-14602341D02*
X19969468Y-14592817D01*
X19969468Y-14592817D02*
X19940896Y-14592817D01*
X19940896Y-14592817D02*
X19921849Y-14583293D01*
X19921849Y-14583293D02*
X19912325Y-14564246D01*
X19912325Y-14564246D02*
X19912325Y-14554722D01*
X19912325Y-14554722D02*
X19921849Y-14535674D01*
X19921849Y-14535674D02*
X19940896Y-14526150D01*
X19940896Y-14526150D02*
X19969468Y-14526150D01*
X19969468Y-14526150D02*
X19988516Y-14535674D01*
X20112325Y-14659484D02*
X20093277Y-14649960D01*
X20093277Y-14649960D02*
X20083754Y-14630912D01*
X20083754Y-14630912D02*
X20083754Y-14459484D01*
X20217087Y-14659484D02*
X20198039Y-14649960D01*
X20198039Y-14649960D02*
X20188516Y-14640436D01*
X20188516Y-14640436D02*
X20178992Y-14621388D01*
X20178992Y-14621388D02*
X20178992Y-14564246D01*
X20178992Y-14564246D02*
X20188516Y-14545198D01*
X20188516Y-14545198D02*
X20198039Y-14535674D01*
X20198039Y-14535674D02*
X20217087Y-14526150D01*
X20217087Y-14526150D02*
X20245658Y-14526150D01*
X20245658Y-14526150D02*
X20264706Y-14535674D01*
X20264706Y-14535674D02*
X20274230Y-14545198D01*
X20274230Y-14545198D02*
X20283754Y-14564246D01*
X20283754Y-14564246D02*
X20283754Y-14621388D01*
X20283754Y-14621388D02*
X20274230Y-14640436D01*
X20274230Y-14640436D02*
X20264706Y-14649960D01*
X20264706Y-14649960D02*
X20245658Y-14659484D01*
X20245658Y-14659484D02*
X20217087Y-14659484D01*
X20340897Y-14526150D02*
X20417087Y-14526150D01*
X20369468Y-14459484D02*
X20369468Y-14630912D01*
X20369468Y-14630912D02*
X20378992Y-14649960D01*
X20378992Y-14649960D02*
X20398039Y-14659484D01*
X20398039Y-14659484D02*
X20417087Y-14659484D01*
X20474230Y-14649960D02*
X20493277Y-14659484D01*
X20493277Y-14659484D02*
X20531373Y-14659484D01*
X20531373Y-14659484D02*
X20550420Y-14649960D01*
X20550420Y-14649960D02*
X20559944Y-14630912D01*
X20559944Y-14630912D02*
X20559944Y-14621388D01*
X20559944Y-14621388D02*
X20550420Y-14602341D01*
X20550420Y-14602341D02*
X20531373Y-14592817D01*
X20531373Y-14592817D02*
X20502801Y-14592817D01*
X20502801Y-14592817D02*
X20483754Y-14583293D01*
X20483754Y-14583293D02*
X20474230Y-14564246D01*
X20474230Y-14564246D02*
X20474230Y-14554722D01*
X20474230Y-14554722D02*
X20483754Y-14535674D01*
X20483754Y-14535674D02*
X20502801Y-14526150D01*
X20502801Y-14526150D02*
X20531373Y-14526150D01*
X20531373Y-14526150D02*
X20550420Y-14535674D01*
X20626611Y-14735674D02*
X20636135Y-14726150D01*
X20636135Y-14726150D02*
X20655182Y-14697579D01*
X20655182Y-14697579D02*
X20664706Y-14678531D01*
X20664706Y-14678531D02*
X20674230Y-14649960D01*
X20674230Y-14649960D02*
X20683754Y-14602341D01*
X20683754Y-14602341D02*
X20683754Y-14564246D01*
X20683754Y-14564246D02*
X20674230Y-14516627D01*
X20674230Y-14516627D02*
X20664706Y-14488055D01*
X20664706Y-14488055D02*
X20655182Y-14469008D01*
X20655182Y-14469008D02*
X20636135Y-14440436D01*
X20636135Y-14440436D02*
X20626611Y-14430912D01*
D12*
X14222249Y-14856749D02*
X14222249Y-14807251D01*
X14172751Y-14807251D01*
X14172751Y-14856749D01*
X14222249Y-14856749D01*
D11*
X14531372Y-14723484D02*
X14550420Y-14723484D01*
X14550420Y-14723484D02*
X14569467Y-14733008D01*
X14569467Y-14733008D02*
X14578991Y-14742531D01*
X14578991Y-14742531D02*
X14588515Y-14761579D01*
X14588515Y-14761579D02*
X14598039Y-14799674D01*
X14598039Y-14799674D02*
X14598039Y-14847293D01*
X14598039Y-14847293D02*
X14588515Y-14885388D01*
X14588515Y-14885388D02*
X14578991Y-14904436D01*
X14578991Y-14904436D02*
X14569467Y-14913960D01*
X14569467Y-14913960D02*
X14550420Y-14923484D01*
X14550420Y-14923484D02*
X14531372Y-14923484D01*
X14531372Y-14923484D02*
X14512324Y-14913960D01*
X14512324Y-14913960D02*
X14502801Y-14904436D01*
X14502801Y-14904436D02*
X14493277Y-14885388D01*
X14493277Y-14885388D02*
X14483753Y-14847293D01*
X14483753Y-14847293D02*
X14483753Y-14799674D01*
X14483753Y-14799674D02*
X14493277Y-14761579D01*
X14493277Y-14761579D02*
X14502801Y-14742531D01*
X14502801Y-14742531D02*
X14512324Y-14733008D01*
X14512324Y-14733008D02*
X14531372Y-14723484D01*
X14683753Y-14904436D02*
X14693277Y-14913960D01*
X14693277Y-14913960D02*
X14683753Y-14923484D01*
X14683753Y-14923484D02*
X14674229Y-14913960D01*
X14674229Y-14913960D02*
X14683753Y-14904436D01*
X14683753Y-14904436D02*
X14683753Y-14923484D01*
X14759943Y-14723484D02*
X14893277Y-14723484D01*
X14893277Y-14723484D02*
X14807562Y-14923484D01*
X15007562Y-14723484D02*
X15026610Y-14723484D01*
X15026610Y-14723484D02*
X15045658Y-14733008D01*
X15045658Y-14733008D02*
X15055182Y-14742531D01*
X15055182Y-14742531D02*
X15064705Y-14761579D01*
X15064705Y-14761579D02*
X15074229Y-14799674D01*
X15074229Y-14799674D02*
X15074229Y-14847293D01*
X15074229Y-14847293D02*
X15064705Y-14885388D01*
X15064705Y-14885388D02*
X15055182Y-14904436D01*
X15055182Y-14904436D02*
X15045658Y-14913960D01*
X15045658Y-14913960D02*
X15026610Y-14923484D01*
X15026610Y-14923484D02*
X15007562Y-14923484D01*
X15007562Y-14923484D02*
X14988515Y-14913960D01*
X14988515Y-14913960D02*
X14978991Y-14904436D01*
X14978991Y-14904436D02*
X14969467Y-14885388D01*
X14969467Y-14885388D02*
X14959943Y-14847293D01*
X14959943Y-14847293D02*
X14959943Y-14799674D01*
X14959943Y-14799674D02*
X14969467Y-14761579D01*
X14969467Y-14761579D02*
X14978991Y-14742531D01*
X14978991Y-14742531D02*
X14988515Y-14733008D01*
X14988515Y-14733008D02*
X15007562Y-14723484D01*
X15198039Y-14723484D02*
X15217086Y-14723484D01*
X15217086Y-14723484D02*
X15236134Y-14733008D01*
X15236134Y-14733008D02*
X15245658Y-14742531D01*
X15245658Y-14742531D02*
X15255182Y-14761579D01*
X15255182Y-14761579D02*
X15264705Y-14799674D01*
X15264705Y-14799674D02*
X15264705Y-14847293D01*
X15264705Y-14847293D02*
X15255182Y-14885388D01*
X15255182Y-14885388D02*
X15245658Y-14904436D01*
X15245658Y-14904436D02*
X15236134Y-14913960D01*
X15236134Y-14913960D02*
X15217086Y-14923484D01*
X15217086Y-14923484D02*
X15198039Y-14923484D01*
X15198039Y-14923484D02*
X15178991Y-14913960D01*
X15178991Y-14913960D02*
X15169467Y-14904436D01*
X15169467Y-14904436D02*
X15159943Y-14885388D01*
X15159943Y-14885388D02*
X15150420Y-14847293D01*
X15150420Y-14847293D02*
X15150420Y-14799674D01*
X15150420Y-14799674D02*
X15159943Y-14761579D01*
X15159943Y-14761579D02*
X15169467Y-14742531D01*
X15169467Y-14742531D02*
X15178991Y-14733008D01*
X15178991Y-14733008D02*
X15198039Y-14723484D01*
X15350420Y-14923484D02*
X15350420Y-14790150D01*
X15350420Y-14809198D02*
X15359943Y-14799674D01*
X15359943Y-14799674D02*
X15378991Y-14790150D01*
X15378991Y-14790150D02*
X15407563Y-14790150D01*
X15407563Y-14790150D02*
X15426610Y-14799674D01*
X15426610Y-14799674D02*
X15436134Y-14818722D01*
X15436134Y-14818722D02*
X15436134Y-14923484D01*
X15436134Y-14818722D02*
X15445658Y-14799674D01*
X15445658Y-14799674D02*
X15464705Y-14790150D01*
X15464705Y-14790150D02*
X15493277Y-14790150D01*
X15493277Y-14790150D02*
X15512324Y-14799674D01*
X15512324Y-14799674D02*
X15521848Y-14818722D01*
X15521848Y-14818722D02*
X15521848Y-14923484D01*
X15617086Y-14923484D02*
X15617086Y-14790150D01*
X15617086Y-14809198D02*
X15626610Y-14799674D01*
X15626610Y-14799674D02*
X15645658Y-14790150D01*
X15645658Y-14790150D02*
X15674229Y-14790150D01*
X15674229Y-14790150D02*
X15693277Y-14799674D01*
X15693277Y-14799674D02*
X15702801Y-14818722D01*
X15702801Y-14818722D02*
X15702801Y-14923484D01*
X15702801Y-14818722D02*
X15712324Y-14799674D01*
X15712324Y-14799674D02*
X15731372Y-14790150D01*
X15731372Y-14790150D02*
X15759943Y-14790150D01*
X15759943Y-14790150D02*
X15778991Y-14799674D01*
X15778991Y-14799674D02*
X15788515Y-14818722D01*
X15788515Y-14818722D02*
X15788515Y-14923484D01*
X16178991Y-14713960D02*
X16007563Y-14971103D01*
X16436134Y-14723484D02*
X16455182Y-14723484D01*
X16455182Y-14723484D02*
X16474229Y-14733008D01*
X16474229Y-14733008D02*
X16483753Y-14742531D01*
X16483753Y-14742531D02*
X16493277Y-14761579D01*
X16493277Y-14761579D02*
X16502801Y-14799674D01*
X16502801Y-14799674D02*
X16502801Y-14847293D01*
X16502801Y-14847293D02*
X16493277Y-14885388D01*
X16493277Y-14885388D02*
X16483753Y-14904436D01*
X16483753Y-14904436D02*
X16474229Y-14913960D01*
X16474229Y-14913960D02*
X16455182Y-14923484D01*
X16455182Y-14923484D02*
X16436134Y-14923484D01*
X16436134Y-14923484D02*
X16417086Y-14913960D01*
X16417086Y-14913960D02*
X16407563Y-14904436D01*
X16407563Y-14904436D02*
X16398039Y-14885388D01*
X16398039Y-14885388D02*
X16388515Y-14847293D01*
X16388515Y-14847293D02*
X16388515Y-14799674D01*
X16388515Y-14799674D02*
X16398039Y-14761579D01*
X16398039Y-14761579D02*
X16407563Y-14742531D01*
X16407563Y-14742531D02*
X16417086Y-14733008D01*
X16417086Y-14733008D02*
X16436134Y-14723484D01*
X16588515Y-14904436D02*
X16598039Y-14913960D01*
X16598039Y-14913960D02*
X16588515Y-14923484D01*
X16588515Y-14923484D02*
X16578991Y-14913960D01*
X16578991Y-14913960D02*
X16588515Y-14904436D01*
X16588515Y-14904436D02*
X16588515Y-14923484D01*
X16721848Y-14723484D02*
X16740896Y-14723484D01*
X16740896Y-14723484D02*
X16759944Y-14733008D01*
X16759944Y-14733008D02*
X16769467Y-14742531D01*
X16769467Y-14742531D02*
X16778991Y-14761579D01*
X16778991Y-14761579D02*
X16788515Y-14799674D01*
X16788515Y-14799674D02*
X16788515Y-14847293D01*
X16788515Y-14847293D02*
X16778991Y-14885388D01*
X16778991Y-14885388D02*
X16769467Y-14904436D01*
X16769467Y-14904436D02*
X16759944Y-14913960D01*
X16759944Y-14913960D02*
X16740896Y-14923484D01*
X16740896Y-14923484D02*
X16721848Y-14923484D01*
X16721848Y-14923484D02*
X16702801Y-14913960D01*
X16702801Y-14913960D02*
X16693277Y-14904436D01*
X16693277Y-14904436D02*
X16683753Y-14885388D01*
X16683753Y-14885388D02*
X16674229Y-14847293D01*
X16674229Y-14847293D02*
X16674229Y-14799674D01*
X16674229Y-14799674D02*
X16683753Y-14761579D01*
X16683753Y-14761579D02*
X16693277Y-14742531D01*
X16693277Y-14742531D02*
X16702801Y-14733008D01*
X16702801Y-14733008D02*
X16721848Y-14723484D01*
X16864706Y-14742531D02*
X16874229Y-14733008D01*
X16874229Y-14733008D02*
X16893277Y-14723484D01*
X16893277Y-14723484D02*
X16940896Y-14723484D01*
X16940896Y-14723484D02*
X16959944Y-14733008D01*
X16959944Y-14733008D02*
X16969468Y-14742531D01*
X16969468Y-14742531D02*
X16978991Y-14761579D01*
X16978991Y-14761579D02*
X16978991Y-14780627D01*
X16978991Y-14780627D02*
X16969468Y-14809198D01*
X16969468Y-14809198D02*
X16855182Y-14923484D01*
X16855182Y-14923484D02*
X16978991Y-14923484D01*
X17045658Y-14723484D02*
X17178991Y-14723484D01*
X17178991Y-14723484D02*
X17093277Y-14923484D01*
X17340896Y-14723484D02*
X17302801Y-14723484D01*
X17302801Y-14723484D02*
X17283753Y-14733008D01*
X17283753Y-14733008D02*
X17274229Y-14742531D01*
X17274229Y-14742531D02*
X17255182Y-14771103D01*
X17255182Y-14771103D02*
X17245658Y-14809198D01*
X17245658Y-14809198D02*
X17245658Y-14885388D01*
X17245658Y-14885388D02*
X17255182Y-14904436D01*
X17255182Y-14904436D02*
X17264706Y-14913960D01*
X17264706Y-14913960D02*
X17283753Y-14923484D01*
X17283753Y-14923484D02*
X17321849Y-14923484D01*
X17321849Y-14923484D02*
X17340896Y-14913960D01*
X17340896Y-14913960D02*
X17350420Y-14904436D01*
X17350420Y-14904436D02*
X17359944Y-14885388D01*
X17359944Y-14885388D02*
X17359944Y-14837769D01*
X17359944Y-14837769D02*
X17350420Y-14818722D01*
X17350420Y-14818722D02*
X17340896Y-14809198D01*
X17340896Y-14809198D02*
X17321849Y-14799674D01*
X17321849Y-14799674D02*
X17283753Y-14799674D01*
X17283753Y-14799674D02*
X17264706Y-14809198D01*
X17264706Y-14809198D02*
X17255182Y-14818722D01*
X17255182Y-14818722D02*
X17245658Y-14837769D01*
X17436134Y-14723484D02*
X17436134Y-14761579D01*
X17512325Y-14723484D02*
X17512325Y-14761579D01*
X17807563Y-14999674D02*
X17798039Y-14990150D01*
X17798039Y-14990150D02*
X17778991Y-14961579D01*
X17778991Y-14961579D02*
X17769468Y-14942531D01*
X17769468Y-14942531D02*
X17759944Y-14913960D01*
X17759944Y-14913960D02*
X17750420Y-14866341D01*
X17750420Y-14866341D02*
X17750420Y-14828246D01*
X17750420Y-14828246D02*
X17759944Y-14780627D01*
X17759944Y-14780627D02*
X17769468Y-14752055D01*
X17769468Y-14752055D02*
X17778991Y-14733008D01*
X17778991Y-14733008D02*
X17798039Y-14704436D01*
X17798039Y-14704436D02*
X17807563Y-14694912D01*
X17874230Y-14742531D02*
X17883753Y-14733008D01*
X17883753Y-14733008D02*
X17902801Y-14723484D01*
X17902801Y-14723484D02*
X17950420Y-14723484D01*
X17950420Y-14723484D02*
X17969468Y-14733008D01*
X17969468Y-14733008D02*
X17978991Y-14742531D01*
X17978991Y-14742531D02*
X17988515Y-14761579D01*
X17988515Y-14761579D02*
X17988515Y-14780627D01*
X17988515Y-14780627D02*
X17978991Y-14809198D01*
X17978991Y-14809198D02*
X17864706Y-14923484D01*
X17864706Y-14923484D02*
X17988515Y-14923484D01*
X18226611Y-14923484D02*
X18226611Y-14723484D01*
X18312325Y-14923484D02*
X18312325Y-14818722D01*
X18312325Y-14818722D02*
X18302801Y-14799674D01*
X18302801Y-14799674D02*
X18283753Y-14790150D01*
X18283753Y-14790150D02*
X18255182Y-14790150D01*
X18255182Y-14790150D02*
X18236134Y-14799674D01*
X18236134Y-14799674D02*
X18226611Y-14809198D01*
X18436134Y-14923484D02*
X18417087Y-14913960D01*
X18417087Y-14913960D02*
X18407563Y-14904436D01*
X18407563Y-14904436D02*
X18398039Y-14885388D01*
X18398039Y-14885388D02*
X18398039Y-14828246D01*
X18398039Y-14828246D02*
X18407563Y-14809198D01*
X18407563Y-14809198D02*
X18417087Y-14799674D01*
X18417087Y-14799674D02*
X18436134Y-14790150D01*
X18436134Y-14790150D02*
X18464706Y-14790150D01*
X18464706Y-14790150D02*
X18483753Y-14799674D01*
X18483753Y-14799674D02*
X18493277Y-14809198D01*
X18493277Y-14809198D02*
X18502801Y-14828246D01*
X18502801Y-14828246D02*
X18502801Y-14885388D01*
X18502801Y-14885388D02*
X18493277Y-14904436D01*
X18493277Y-14904436D02*
X18483753Y-14913960D01*
X18483753Y-14913960D02*
X18464706Y-14923484D01*
X18464706Y-14923484D02*
X18436134Y-14923484D01*
X18617087Y-14923484D02*
X18598039Y-14913960D01*
X18598039Y-14913960D02*
X18588515Y-14894912D01*
X18588515Y-14894912D02*
X18588515Y-14723484D01*
X18769468Y-14913960D02*
X18750420Y-14923484D01*
X18750420Y-14923484D02*
X18712325Y-14923484D01*
X18712325Y-14923484D02*
X18693277Y-14913960D01*
X18693277Y-14913960D02*
X18683753Y-14894912D01*
X18683753Y-14894912D02*
X18683753Y-14818722D01*
X18683753Y-14818722D02*
X18693277Y-14799674D01*
X18693277Y-14799674D02*
X18712325Y-14790150D01*
X18712325Y-14790150D02*
X18750420Y-14790150D01*
X18750420Y-14790150D02*
X18769468Y-14799674D01*
X18769468Y-14799674D02*
X18778992Y-14818722D01*
X18778992Y-14818722D02*
X18778992Y-14837769D01*
X18778992Y-14837769D02*
X18683753Y-14856817D01*
X18855182Y-14913960D02*
X18874230Y-14923484D01*
X18874230Y-14923484D02*
X18912325Y-14923484D01*
X18912325Y-14923484D02*
X18931373Y-14913960D01*
X18931373Y-14913960D02*
X18940896Y-14894912D01*
X18940896Y-14894912D02*
X18940896Y-14885388D01*
X18940896Y-14885388D02*
X18931373Y-14866341D01*
X18931373Y-14866341D02*
X18912325Y-14856817D01*
X18912325Y-14856817D02*
X18883753Y-14856817D01*
X18883753Y-14856817D02*
X18864706Y-14847293D01*
X18864706Y-14847293D02*
X18855182Y-14828246D01*
X18855182Y-14828246D02*
X18855182Y-14818722D01*
X18855182Y-14818722D02*
X18864706Y-14799674D01*
X18864706Y-14799674D02*
X18883753Y-14790150D01*
X18883753Y-14790150D02*
X18912325Y-14790150D01*
X18912325Y-14790150D02*
X18931373Y-14799674D01*
X19007563Y-14999674D02*
X19017087Y-14990150D01*
X19017087Y-14990150D02*
X19036134Y-14961579D01*
X19036134Y-14961579D02*
X19045658Y-14942531D01*
X19045658Y-14942531D02*
X19055182Y-14913960D01*
X19055182Y-14913960D02*
X19064706Y-14866341D01*
X19064706Y-14866341D02*
X19064706Y-14828246D01*
X19064706Y-14828246D02*
X19055182Y-14780627D01*
X19055182Y-14780627D02*
X19045658Y-14752055D01*
X19045658Y-14752055D02*
X19036134Y-14733008D01*
X19036134Y-14733008D02*
X19017087Y-14704436D01*
X19017087Y-14704436D02*
X19007563Y-14694912D01*
D12*
X14182500Y-15146000D02*
X14232500Y-15096000D01*
X14182500Y-15046000D01*
X14132500Y-15096000D01*
X14182500Y-15146000D01*
D11*
X14598039Y-15187484D02*
X14483753Y-15187484D01*
X14540896Y-15187484D02*
X14540896Y-14987484D01*
X14540896Y-14987484D02*
X14521848Y-15016055D01*
X14521848Y-15016055D02*
X14502801Y-15035103D01*
X14502801Y-15035103D02*
X14483753Y-15044627D01*
X14683753Y-15168436D02*
X14693277Y-15177960D01*
X14693277Y-15177960D02*
X14683753Y-15187484D01*
X14683753Y-15187484D02*
X14674229Y-15177960D01*
X14674229Y-15177960D02*
X14683753Y-15168436D01*
X14683753Y-15168436D02*
X14683753Y-15187484D01*
X14817086Y-14987484D02*
X14836134Y-14987484D01*
X14836134Y-14987484D02*
X14855182Y-14997008D01*
X14855182Y-14997008D02*
X14864705Y-15006531D01*
X14864705Y-15006531D02*
X14874229Y-15025579D01*
X14874229Y-15025579D02*
X14883753Y-15063674D01*
X14883753Y-15063674D02*
X14883753Y-15111293D01*
X14883753Y-15111293D02*
X14874229Y-15149388D01*
X14874229Y-15149388D02*
X14864705Y-15168436D01*
X14864705Y-15168436D02*
X14855182Y-15177960D01*
X14855182Y-15177960D02*
X14836134Y-15187484D01*
X14836134Y-15187484D02*
X14817086Y-15187484D01*
X14817086Y-15187484D02*
X14798039Y-15177960D01*
X14798039Y-15177960D02*
X14788515Y-15168436D01*
X14788515Y-15168436D02*
X14778991Y-15149388D01*
X14778991Y-15149388D02*
X14769467Y-15111293D01*
X14769467Y-15111293D02*
X14769467Y-15063674D01*
X14769467Y-15063674D02*
X14778991Y-15025579D01*
X14778991Y-15025579D02*
X14788515Y-15006531D01*
X14788515Y-15006531D02*
X14798039Y-14997008D01*
X14798039Y-14997008D02*
X14817086Y-14987484D01*
X15007562Y-14987484D02*
X15026610Y-14987484D01*
X15026610Y-14987484D02*
X15045658Y-14997008D01*
X15045658Y-14997008D02*
X15055182Y-15006531D01*
X15055182Y-15006531D02*
X15064705Y-15025579D01*
X15064705Y-15025579D02*
X15074229Y-15063674D01*
X15074229Y-15063674D02*
X15074229Y-15111293D01*
X15074229Y-15111293D02*
X15064705Y-15149388D01*
X15064705Y-15149388D02*
X15055182Y-15168436D01*
X15055182Y-15168436D02*
X15045658Y-15177960D01*
X15045658Y-15177960D02*
X15026610Y-15187484D01*
X15026610Y-15187484D02*
X15007562Y-15187484D01*
X15007562Y-15187484D02*
X14988515Y-15177960D01*
X14988515Y-15177960D02*
X14978991Y-15168436D01*
X14978991Y-15168436D02*
X14969467Y-15149388D01*
X14969467Y-15149388D02*
X14959943Y-15111293D01*
X14959943Y-15111293D02*
X14959943Y-15063674D01*
X14959943Y-15063674D02*
X14969467Y-15025579D01*
X14969467Y-15025579D02*
X14978991Y-15006531D01*
X14978991Y-15006531D02*
X14988515Y-14997008D01*
X14988515Y-14997008D02*
X15007562Y-14987484D01*
X15198039Y-14987484D02*
X15217086Y-14987484D01*
X15217086Y-14987484D02*
X15236134Y-14997008D01*
X15236134Y-14997008D02*
X15245658Y-15006531D01*
X15245658Y-15006531D02*
X15255182Y-15025579D01*
X15255182Y-15025579D02*
X15264705Y-15063674D01*
X15264705Y-15063674D02*
X15264705Y-15111293D01*
X15264705Y-15111293D02*
X15255182Y-15149388D01*
X15255182Y-15149388D02*
X15245658Y-15168436D01*
X15245658Y-15168436D02*
X15236134Y-15177960D01*
X15236134Y-15177960D02*
X15217086Y-15187484D01*
X15217086Y-15187484D02*
X15198039Y-15187484D01*
X15198039Y-15187484D02*
X15178991Y-15177960D01*
X15178991Y-15177960D02*
X15169467Y-15168436D01*
X15169467Y-15168436D02*
X15159943Y-15149388D01*
X15159943Y-15149388D02*
X15150420Y-15111293D01*
X15150420Y-15111293D02*
X15150420Y-15063674D01*
X15150420Y-15063674D02*
X15159943Y-15025579D01*
X15159943Y-15025579D02*
X15169467Y-15006531D01*
X15169467Y-15006531D02*
X15178991Y-14997008D01*
X15178991Y-14997008D02*
X15198039Y-14987484D01*
X15350420Y-15187484D02*
X15350420Y-15054150D01*
X15350420Y-15073198D02*
X15359943Y-15063674D01*
X15359943Y-15063674D02*
X15378991Y-15054150D01*
X15378991Y-15054150D02*
X15407563Y-15054150D01*
X15407563Y-15054150D02*
X15426610Y-15063674D01*
X15426610Y-15063674D02*
X15436134Y-15082722D01*
X15436134Y-15082722D02*
X15436134Y-15187484D01*
X15436134Y-15082722D02*
X15445658Y-15063674D01*
X15445658Y-15063674D02*
X15464705Y-15054150D01*
X15464705Y-15054150D02*
X15493277Y-15054150D01*
X15493277Y-15054150D02*
X15512324Y-15063674D01*
X15512324Y-15063674D02*
X15521848Y-15082722D01*
X15521848Y-15082722D02*
X15521848Y-15187484D01*
X15617086Y-15187484D02*
X15617086Y-15054150D01*
X15617086Y-15073198D02*
X15626610Y-15063674D01*
X15626610Y-15063674D02*
X15645658Y-15054150D01*
X15645658Y-15054150D02*
X15674229Y-15054150D01*
X15674229Y-15054150D02*
X15693277Y-15063674D01*
X15693277Y-15063674D02*
X15702801Y-15082722D01*
X15702801Y-15082722D02*
X15702801Y-15187484D01*
X15702801Y-15082722D02*
X15712324Y-15063674D01*
X15712324Y-15063674D02*
X15731372Y-15054150D01*
X15731372Y-15054150D02*
X15759943Y-15054150D01*
X15759943Y-15054150D02*
X15778991Y-15063674D01*
X15778991Y-15063674D02*
X15788515Y-15082722D01*
X15788515Y-15082722D02*
X15788515Y-15187484D01*
X16178991Y-14977960D02*
X16007563Y-15235103D01*
X16436134Y-14987484D02*
X16455182Y-14987484D01*
X16455182Y-14987484D02*
X16474229Y-14997008D01*
X16474229Y-14997008D02*
X16483753Y-15006531D01*
X16483753Y-15006531D02*
X16493277Y-15025579D01*
X16493277Y-15025579D02*
X16502801Y-15063674D01*
X16502801Y-15063674D02*
X16502801Y-15111293D01*
X16502801Y-15111293D02*
X16493277Y-15149388D01*
X16493277Y-15149388D02*
X16483753Y-15168436D01*
X16483753Y-15168436D02*
X16474229Y-15177960D01*
X16474229Y-15177960D02*
X16455182Y-15187484D01*
X16455182Y-15187484D02*
X16436134Y-15187484D01*
X16436134Y-15187484D02*
X16417086Y-15177960D01*
X16417086Y-15177960D02*
X16407563Y-15168436D01*
X16407563Y-15168436D02*
X16398039Y-15149388D01*
X16398039Y-15149388D02*
X16388515Y-15111293D01*
X16388515Y-15111293D02*
X16388515Y-15063674D01*
X16388515Y-15063674D02*
X16398039Y-15025579D01*
X16398039Y-15025579D02*
X16407563Y-15006531D01*
X16407563Y-15006531D02*
X16417086Y-14997008D01*
X16417086Y-14997008D02*
X16436134Y-14987484D01*
X16588515Y-15168436D02*
X16598039Y-15177960D01*
X16598039Y-15177960D02*
X16588515Y-15187484D01*
X16588515Y-15187484D02*
X16578991Y-15177960D01*
X16578991Y-15177960D02*
X16588515Y-15168436D01*
X16588515Y-15168436D02*
X16588515Y-15187484D01*
X16721848Y-14987484D02*
X16740896Y-14987484D01*
X16740896Y-14987484D02*
X16759944Y-14997008D01*
X16759944Y-14997008D02*
X16769467Y-15006531D01*
X16769467Y-15006531D02*
X16778991Y-15025579D01*
X16778991Y-15025579D02*
X16788515Y-15063674D01*
X16788515Y-15063674D02*
X16788515Y-15111293D01*
X16788515Y-15111293D02*
X16778991Y-15149388D01*
X16778991Y-15149388D02*
X16769467Y-15168436D01*
X16769467Y-15168436D02*
X16759944Y-15177960D01*
X16759944Y-15177960D02*
X16740896Y-15187484D01*
X16740896Y-15187484D02*
X16721848Y-15187484D01*
X16721848Y-15187484D02*
X16702801Y-15177960D01*
X16702801Y-15177960D02*
X16693277Y-15168436D01*
X16693277Y-15168436D02*
X16683753Y-15149388D01*
X16683753Y-15149388D02*
X16674229Y-15111293D01*
X16674229Y-15111293D02*
X16674229Y-15063674D01*
X16674229Y-15063674D02*
X16683753Y-15025579D01*
X16683753Y-15025579D02*
X16693277Y-15006531D01*
X16693277Y-15006531D02*
X16702801Y-14997008D01*
X16702801Y-14997008D02*
X16721848Y-14987484D01*
X16855182Y-14987484D02*
X16978991Y-14987484D01*
X16978991Y-14987484D02*
X16912325Y-15063674D01*
X16912325Y-15063674D02*
X16940896Y-15063674D01*
X16940896Y-15063674D02*
X16959944Y-15073198D01*
X16959944Y-15073198D02*
X16969468Y-15082722D01*
X16969468Y-15082722D02*
X16978991Y-15101769D01*
X16978991Y-15101769D02*
X16978991Y-15149388D01*
X16978991Y-15149388D02*
X16969468Y-15168436D01*
X16969468Y-15168436D02*
X16959944Y-15177960D01*
X16959944Y-15177960D02*
X16940896Y-15187484D01*
X16940896Y-15187484D02*
X16883753Y-15187484D01*
X16883753Y-15187484D02*
X16864706Y-15177960D01*
X16864706Y-15177960D02*
X16855182Y-15168436D01*
X17074229Y-15187484D02*
X17112325Y-15187484D01*
X17112325Y-15187484D02*
X17131372Y-15177960D01*
X17131372Y-15177960D02*
X17140896Y-15168436D01*
X17140896Y-15168436D02*
X17159944Y-15139865D01*
X17159944Y-15139865D02*
X17169468Y-15101769D01*
X17169468Y-15101769D02*
X17169468Y-15025579D01*
X17169468Y-15025579D02*
X17159944Y-15006531D01*
X17159944Y-15006531D02*
X17150420Y-14997008D01*
X17150420Y-14997008D02*
X17131372Y-14987484D01*
X17131372Y-14987484D02*
X17093277Y-14987484D01*
X17093277Y-14987484D02*
X17074229Y-14997008D01*
X17074229Y-14997008D02*
X17064706Y-15006531D01*
X17064706Y-15006531D02*
X17055182Y-15025579D01*
X17055182Y-15025579D02*
X17055182Y-15073198D01*
X17055182Y-15073198D02*
X17064706Y-15092246D01*
X17064706Y-15092246D02*
X17074229Y-15101769D01*
X17074229Y-15101769D02*
X17093277Y-15111293D01*
X17093277Y-15111293D02*
X17131372Y-15111293D01*
X17131372Y-15111293D02*
X17150420Y-15101769D01*
X17150420Y-15101769D02*
X17159944Y-15092246D01*
X17159944Y-15092246D02*
X17169468Y-15073198D01*
X17340896Y-15054150D02*
X17340896Y-15187484D01*
X17293277Y-14977960D02*
X17245658Y-15120817D01*
X17245658Y-15120817D02*
X17369468Y-15120817D01*
X17436134Y-14987484D02*
X17436134Y-15025579D01*
X17512325Y-14987484D02*
X17512325Y-15025579D01*
X17807563Y-15263674D02*
X17798039Y-15254150D01*
X17798039Y-15254150D02*
X17778991Y-15225579D01*
X17778991Y-15225579D02*
X17769468Y-15206531D01*
X17769468Y-15206531D02*
X17759944Y-15177960D01*
X17759944Y-15177960D02*
X17750420Y-15130341D01*
X17750420Y-15130341D02*
X17750420Y-15092246D01*
X17750420Y-15092246D02*
X17759944Y-15044627D01*
X17759944Y-15044627D02*
X17769468Y-15016055D01*
X17769468Y-15016055D02*
X17778991Y-14997008D01*
X17778991Y-14997008D02*
X17798039Y-14968436D01*
X17798039Y-14968436D02*
X17807563Y-14958912D01*
X17912325Y-15073198D02*
X17893277Y-15063674D01*
X17893277Y-15063674D02*
X17883753Y-15054150D01*
X17883753Y-15054150D02*
X17874230Y-15035103D01*
X17874230Y-15035103D02*
X17874230Y-15025579D01*
X17874230Y-15025579D02*
X17883753Y-15006531D01*
X17883753Y-15006531D02*
X17893277Y-14997008D01*
X17893277Y-14997008D02*
X17912325Y-14987484D01*
X17912325Y-14987484D02*
X17950420Y-14987484D01*
X17950420Y-14987484D02*
X17969468Y-14997008D01*
X17969468Y-14997008D02*
X17978991Y-15006531D01*
X17978991Y-15006531D02*
X17988515Y-15025579D01*
X17988515Y-15025579D02*
X17988515Y-15035103D01*
X17988515Y-15035103D02*
X17978991Y-15054150D01*
X17978991Y-15054150D02*
X17969468Y-15063674D01*
X17969468Y-15063674D02*
X17950420Y-15073198D01*
X17950420Y-15073198D02*
X17912325Y-15073198D01*
X17912325Y-15073198D02*
X17893277Y-15082722D01*
X17893277Y-15082722D02*
X17883753Y-15092246D01*
X17883753Y-15092246D02*
X17874230Y-15111293D01*
X17874230Y-15111293D02*
X17874230Y-15149388D01*
X17874230Y-15149388D02*
X17883753Y-15168436D01*
X17883753Y-15168436D02*
X17893277Y-15177960D01*
X17893277Y-15177960D02*
X17912325Y-15187484D01*
X17912325Y-15187484D02*
X17950420Y-15187484D01*
X17950420Y-15187484D02*
X17969468Y-15177960D01*
X17969468Y-15177960D02*
X17978991Y-15168436D01*
X17978991Y-15168436D02*
X17988515Y-15149388D01*
X17988515Y-15149388D02*
X17988515Y-15111293D01*
X17988515Y-15111293D02*
X17978991Y-15092246D01*
X17978991Y-15092246D02*
X17969468Y-15082722D01*
X17969468Y-15082722D02*
X17950420Y-15073198D01*
X18226611Y-15187484D02*
X18226611Y-14987484D01*
X18312325Y-15187484D02*
X18312325Y-15082722D01*
X18312325Y-15082722D02*
X18302801Y-15063674D01*
X18302801Y-15063674D02*
X18283753Y-15054150D01*
X18283753Y-15054150D02*
X18255182Y-15054150D01*
X18255182Y-15054150D02*
X18236134Y-15063674D01*
X18236134Y-15063674D02*
X18226611Y-15073198D01*
X18436134Y-15187484D02*
X18417087Y-15177960D01*
X18417087Y-15177960D02*
X18407563Y-15168436D01*
X18407563Y-15168436D02*
X18398039Y-15149388D01*
X18398039Y-15149388D02*
X18398039Y-15092246D01*
X18398039Y-15092246D02*
X18407563Y-15073198D01*
X18407563Y-15073198D02*
X18417087Y-15063674D01*
X18417087Y-15063674D02*
X18436134Y-15054150D01*
X18436134Y-15054150D02*
X18464706Y-15054150D01*
X18464706Y-15054150D02*
X18483753Y-15063674D01*
X18483753Y-15063674D02*
X18493277Y-15073198D01*
X18493277Y-15073198D02*
X18502801Y-15092246D01*
X18502801Y-15092246D02*
X18502801Y-15149388D01*
X18502801Y-15149388D02*
X18493277Y-15168436D01*
X18493277Y-15168436D02*
X18483753Y-15177960D01*
X18483753Y-15177960D02*
X18464706Y-15187484D01*
X18464706Y-15187484D02*
X18436134Y-15187484D01*
X18617087Y-15187484D02*
X18598039Y-15177960D01*
X18598039Y-15177960D02*
X18588515Y-15158912D01*
X18588515Y-15158912D02*
X18588515Y-14987484D01*
X18769468Y-15177960D02*
X18750420Y-15187484D01*
X18750420Y-15187484D02*
X18712325Y-15187484D01*
X18712325Y-15187484D02*
X18693277Y-15177960D01*
X18693277Y-15177960D02*
X18683753Y-15158912D01*
X18683753Y-15158912D02*
X18683753Y-15082722D01*
X18683753Y-15082722D02*
X18693277Y-15063674D01*
X18693277Y-15063674D02*
X18712325Y-15054150D01*
X18712325Y-15054150D02*
X18750420Y-15054150D01*
X18750420Y-15054150D02*
X18769468Y-15063674D01*
X18769468Y-15063674D02*
X18778992Y-15082722D01*
X18778992Y-15082722D02*
X18778992Y-15101769D01*
X18778992Y-15101769D02*
X18683753Y-15120817D01*
X18855182Y-15177960D02*
X18874230Y-15187484D01*
X18874230Y-15187484D02*
X18912325Y-15187484D01*
X18912325Y-15187484D02*
X18931373Y-15177960D01*
X18931373Y-15177960D02*
X18940896Y-15158912D01*
X18940896Y-15158912D02*
X18940896Y-15149388D01*
X18940896Y-15149388D02*
X18931373Y-15130341D01*
X18931373Y-15130341D02*
X18912325Y-15120817D01*
X18912325Y-15120817D02*
X18883753Y-15120817D01*
X18883753Y-15120817D02*
X18864706Y-15111293D01*
X18864706Y-15111293D02*
X18855182Y-15092246D01*
X18855182Y-15092246D02*
X18855182Y-15082722D01*
X18855182Y-15082722D02*
X18864706Y-15063674D01*
X18864706Y-15063674D02*
X18883753Y-15054150D01*
X18883753Y-15054150D02*
X18912325Y-15054150D01*
X18912325Y-15054150D02*
X18931373Y-15063674D01*
X19007563Y-15263674D02*
X19017087Y-15254150D01*
X19017087Y-15254150D02*
X19036134Y-15225579D01*
X19036134Y-15225579D02*
X19045658Y-15206531D01*
X19045658Y-15206531D02*
X19055182Y-15177960D01*
X19055182Y-15177960D02*
X19064706Y-15130341D01*
X19064706Y-15130341D02*
X19064706Y-15092246D01*
X19064706Y-15092246D02*
X19055182Y-15044627D01*
X19055182Y-15044627D02*
X19045658Y-15016055D01*
X19045658Y-15016055D02*
X19036134Y-14997008D01*
X19036134Y-14997008D02*
X19017087Y-14968436D01*
X19017087Y-14968436D02*
X19007563Y-14958912D01*
D13*
X14112500Y-15300000D02*
X14232500Y-15420000D01*
X14232500Y-15300000D02*
X14112500Y-15420000D01*
X14232500Y-15360000D02*
G75*
G02*
X14112500Y-15360000I-60000J0D01*
G01*
X14112500Y-15360000D02*
G75*
G02*
X14232500Y-15360000I60000J0D01*
G01*
D11*
X14598039Y-15451484D02*
X14483753Y-15451484D01*
X14540896Y-15451484D02*
X14540896Y-15251484D01*
X14540896Y-15251484D02*
X14521848Y-15280055D01*
X14521848Y-15280055D02*
X14502801Y-15299103D01*
X14502801Y-15299103D02*
X14483753Y-15308627D01*
X14683753Y-15432436D02*
X14693277Y-15441960D01*
X14693277Y-15441960D02*
X14683753Y-15451484D01*
X14683753Y-15451484D02*
X14674229Y-15441960D01*
X14674229Y-15441960D02*
X14683753Y-15432436D01*
X14683753Y-15432436D02*
X14683753Y-15451484D01*
X14769467Y-15270531D02*
X14778991Y-15261008D01*
X14778991Y-15261008D02*
X14798039Y-15251484D01*
X14798039Y-15251484D02*
X14845658Y-15251484D01*
X14845658Y-15251484D02*
X14864705Y-15261008D01*
X14864705Y-15261008D02*
X14874229Y-15270531D01*
X14874229Y-15270531D02*
X14883753Y-15289579D01*
X14883753Y-15289579D02*
X14883753Y-15308627D01*
X14883753Y-15308627D02*
X14874229Y-15337198D01*
X14874229Y-15337198D02*
X14759943Y-15451484D01*
X14759943Y-15451484D02*
X14883753Y-15451484D01*
X15007562Y-15251484D02*
X15026610Y-15251484D01*
X15026610Y-15251484D02*
X15045658Y-15261008D01*
X15045658Y-15261008D02*
X15055182Y-15270531D01*
X15055182Y-15270531D02*
X15064705Y-15289579D01*
X15064705Y-15289579D02*
X15074229Y-15327674D01*
X15074229Y-15327674D02*
X15074229Y-15375293D01*
X15074229Y-15375293D02*
X15064705Y-15413388D01*
X15064705Y-15413388D02*
X15055182Y-15432436D01*
X15055182Y-15432436D02*
X15045658Y-15441960D01*
X15045658Y-15441960D02*
X15026610Y-15451484D01*
X15026610Y-15451484D02*
X15007562Y-15451484D01*
X15007562Y-15451484D02*
X14988515Y-15441960D01*
X14988515Y-15441960D02*
X14978991Y-15432436D01*
X14978991Y-15432436D02*
X14969467Y-15413388D01*
X14969467Y-15413388D02*
X14959943Y-15375293D01*
X14959943Y-15375293D02*
X14959943Y-15327674D01*
X14959943Y-15327674D02*
X14969467Y-15289579D01*
X14969467Y-15289579D02*
X14978991Y-15270531D01*
X14978991Y-15270531D02*
X14988515Y-15261008D01*
X14988515Y-15261008D02*
X15007562Y-15251484D01*
X15198039Y-15251484D02*
X15217086Y-15251484D01*
X15217086Y-15251484D02*
X15236134Y-15261008D01*
X15236134Y-15261008D02*
X15245658Y-15270531D01*
X15245658Y-15270531D02*
X15255182Y-15289579D01*
X15255182Y-15289579D02*
X15264705Y-15327674D01*
X15264705Y-15327674D02*
X15264705Y-15375293D01*
X15264705Y-15375293D02*
X15255182Y-15413388D01*
X15255182Y-15413388D02*
X15245658Y-15432436D01*
X15245658Y-15432436D02*
X15236134Y-15441960D01*
X15236134Y-15441960D02*
X15217086Y-15451484D01*
X15217086Y-15451484D02*
X15198039Y-15451484D01*
X15198039Y-15451484D02*
X15178991Y-15441960D01*
X15178991Y-15441960D02*
X15169467Y-15432436D01*
X15169467Y-15432436D02*
X15159943Y-15413388D01*
X15159943Y-15413388D02*
X15150420Y-15375293D01*
X15150420Y-15375293D02*
X15150420Y-15327674D01*
X15150420Y-15327674D02*
X15159943Y-15289579D01*
X15159943Y-15289579D02*
X15169467Y-15270531D01*
X15169467Y-15270531D02*
X15178991Y-15261008D01*
X15178991Y-15261008D02*
X15198039Y-15251484D01*
X15350420Y-15451484D02*
X15350420Y-15318150D01*
X15350420Y-15337198D02*
X15359943Y-15327674D01*
X15359943Y-15327674D02*
X15378991Y-15318150D01*
X15378991Y-15318150D02*
X15407563Y-15318150D01*
X15407563Y-15318150D02*
X15426610Y-15327674D01*
X15426610Y-15327674D02*
X15436134Y-15346722D01*
X15436134Y-15346722D02*
X15436134Y-15451484D01*
X15436134Y-15346722D02*
X15445658Y-15327674D01*
X15445658Y-15327674D02*
X15464705Y-15318150D01*
X15464705Y-15318150D02*
X15493277Y-15318150D01*
X15493277Y-15318150D02*
X15512324Y-15327674D01*
X15512324Y-15327674D02*
X15521848Y-15346722D01*
X15521848Y-15346722D02*
X15521848Y-15451484D01*
X15617086Y-15451484D02*
X15617086Y-15318150D01*
X15617086Y-15337198D02*
X15626610Y-15327674D01*
X15626610Y-15327674D02*
X15645658Y-15318150D01*
X15645658Y-15318150D02*
X15674229Y-15318150D01*
X15674229Y-15318150D02*
X15693277Y-15327674D01*
X15693277Y-15327674D02*
X15702801Y-15346722D01*
X15702801Y-15346722D02*
X15702801Y-15451484D01*
X15702801Y-15346722D02*
X15712324Y-15327674D01*
X15712324Y-15327674D02*
X15731372Y-15318150D01*
X15731372Y-15318150D02*
X15759943Y-15318150D01*
X15759943Y-15318150D02*
X15778991Y-15327674D01*
X15778991Y-15327674D02*
X15788515Y-15346722D01*
X15788515Y-15346722D02*
X15788515Y-15451484D01*
X16178991Y-15241960D02*
X16007563Y-15499103D01*
X16436134Y-15251484D02*
X16455182Y-15251484D01*
X16455182Y-15251484D02*
X16474229Y-15261008D01*
X16474229Y-15261008D02*
X16483753Y-15270531D01*
X16483753Y-15270531D02*
X16493277Y-15289579D01*
X16493277Y-15289579D02*
X16502801Y-15327674D01*
X16502801Y-15327674D02*
X16502801Y-15375293D01*
X16502801Y-15375293D02*
X16493277Y-15413388D01*
X16493277Y-15413388D02*
X16483753Y-15432436D01*
X16483753Y-15432436D02*
X16474229Y-15441960D01*
X16474229Y-15441960D02*
X16455182Y-15451484D01*
X16455182Y-15451484D02*
X16436134Y-15451484D01*
X16436134Y-15451484D02*
X16417086Y-15441960D01*
X16417086Y-15441960D02*
X16407563Y-15432436D01*
X16407563Y-15432436D02*
X16398039Y-15413388D01*
X16398039Y-15413388D02*
X16388515Y-15375293D01*
X16388515Y-15375293D02*
X16388515Y-15327674D01*
X16388515Y-15327674D02*
X16398039Y-15289579D01*
X16398039Y-15289579D02*
X16407563Y-15270531D01*
X16407563Y-15270531D02*
X16417086Y-15261008D01*
X16417086Y-15261008D02*
X16436134Y-15251484D01*
X16588515Y-15432436D02*
X16598039Y-15441960D01*
X16598039Y-15441960D02*
X16588515Y-15451484D01*
X16588515Y-15451484D02*
X16578991Y-15441960D01*
X16578991Y-15441960D02*
X16588515Y-15432436D01*
X16588515Y-15432436D02*
X16588515Y-15451484D01*
X16721848Y-15251484D02*
X16740896Y-15251484D01*
X16740896Y-15251484D02*
X16759944Y-15261008D01*
X16759944Y-15261008D02*
X16769467Y-15270531D01*
X16769467Y-15270531D02*
X16778991Y-15289579D01*
X16778991Y-15289579D02*
X16788515Y-15327674D01*
X16788515Y-15327674D02*
X16788515Y-15375293D01*
X16788515Y-15375293D02*
X16778991Y-15413388D01*
X16778991Y-15413388D02*
X16769467Y-15432436D01*
X16769467Y-15432436D02*
X16759944Y-15441960D01*
X16759944Y-15441960D02*
X16740896Y-15451484D01*
X16740896Y-15451484D02*
X16721848Y-15451484D01*
X16721848Y-15451484D02*
X16702801Y-15441960D01*
X16702801Y-15441960D02*
X16693277Y-15432436D01*
X16693277Y-15432436D02*
X16683753Y-15413388D01*
X16683753Y-15413388D02*
X16674229Y-15375293D01*
X16674229Y-15375293D02*
X16674229Y-15327674D01*
X16674229Y-15327674D02*
X16683753Y-15289579D01*
X16683753Y-15289579D02*
X16693277Y-15270531D01*
X16693277Y-15270531D02*
X16702801Y-15261008D01*
X16702801Y-15261008D02*
X16721848Y-15251484D01*
X16959944Y-15318150D02*
X16959944Y-15451484D01*
X16912325Y-15241960D02*
X16864706Y-15384817D01*
X16864706Y-15384817D02*
X16988515Y-15384817D01*
X17045658Y-15251484D02*
X17178991Y-15251484D01*
X17178991Y-15251484D02*
X17093277Y-15451484D01*
X17245658Y-15270531D02*
X17255182Y-15261008D01*
X17255182Y-15261008D02*
X17274229Y-15251484D01*
X17274229Y-15251484D02*
X17321849Y-15251484D01*
X17321849Y-15251484D02*
X17340896Y-15261008D01*
X17340896Y-15261008D02*
X17350420Y-15270531D01*
X17350420Y-15270531D02*
X17359944Y-15289579D01*
X17359944Y-15289579D02*
X17359944Y-15308627D01*
X17359944Y-15308627D02*
X17350420Y-15337198D01*
X17350420Y-15337198D02*
X17236134Y-15451484D01*
X17236134Y-15451484D02*
X17359944Y-15451484D01*
X17436134Y-15251484D02*
X17436134Y-15289579D01*
X17512325Y-15251484D02*
X17512325Y-15289579D01*
X17807563Y-15527674D02*
X17798039Y-15518150D01*
X17798039Y-15518150D02*
X17778991Y-15489579D01*
X17778991Y-15489579D02*
X17769468Y-15470531D01*
X17769468Y-15470531D02*
X17759944Y-15441960D01*
X17759944Y-15441960D02*
X17750420Y-15394341D01*
X17750420Y-15394341D02*
X17750420Y-15356246D01*
X17750420Y-15356246D02*
X17759944Y-15308627D01*
X17759944Y-15308627D02*
X17769468Y-15280055D01*
X17769468Y-15280055D02*
X17778991Y-15261008D01*
X17778991Y-15261008D02*
X17798039Y-15232436D01*
X17798039Y-15232436D02*
X17807563Y-15222912D01*
X17874230Y-15270531D02*
X17883753Y-15261008D01*
X17883753Y-15261008D02*
X17902801Y-15251484D01*
X17902801Y-15251484D02*
X17950420Y-15251484D01*
X17950420Y-15251484D02*
X17969468Y-15261008D01*
X17969468Y-15261008D02*
X17978991Y-15270531D01*
X17978991Y-15270531D02*
X17988515Y-15289579D01*
X17988515Y-15289579D02*
X17988515Y-15308627D01*
X17988515Y-15308627D02*
X17978991Y-15337198D01*
X17978991Y-15337198D02*
X17864706Y-15451484D01*
X17864706Y-15451484D02*
X17988515Y-15451484D01*
X18226611Y-15451484D02*
X18226611Y-15251484D01*
X18312325Y-15451484D02*
X18312325Y-15346722D01*
X18312325Y-15346722D02*
X18302801Y-15327674D01*
X18302801Y-15327674D02*
X18283753Y-15318150D01*
X18283753Y-15318150D02*
X18255182Y-15318150D01*
X18255182Y-15318150D02*
X18236134Y-15327674D01*
X18236134Y-15327674D02*
X18226611Y-15337198D01*
X18436134Y-15451484D02*
X18417087Y-15441960D01*
X18417087Y-15441960D02*
X18407563Y-15432436D01*
X18407563Y-15432436D02*
X18398039Y-15413388D01*
X18398039Y-15413388D02*
X18398039Y-15356246D01*
X18398039Y-15356246D02*
X18407563Y-15337198D01*
X18407563Y-15337198D02*
X18417087Y-15327674D01*
X18417087Y-15327674D02*
X18436134Y-15318150D01*
X18436134Y-15318150D02*
X18464706Y-15318150D01*
X18464706Y-15318150D02*
X18483753Y-15327674D01*
X18483753Y-15327674D02*
X18493277Y-15337198D01*
X18493277Y-15337198D02*
X18502801Y-15356246D01*
X18502801Y-15356246D02*
X18502801Y-15413388D01*
X18502801Y-15413388D02*
X18493277Y-15432436D01*
X18493277Y-15432436D02*
X18483753Y-15441960D01*
X18483753Y-15441960D02*
X18464706Y-15451484D01*
X18464706Y-15451484D02*
X18436134Y-15451484D01*
X18617087Y-15451484D02*
X18598039Y-15441960D01*
X18598039Y-15441960D02*
X18588515Y-15422912D01*
X18588515Y-15422912D02*
X18588515Y-15251484D01*
X18769468Y-15441960D02*
X18750420Y-15451484D01*
X18750420Y-15451484D02*
X18712325Y-15451484D01*
X18712325Y-15451484D02*
X18693277Y-15441960D01*
X18693277Y-15441960D02*
X18683753Y-15422912D01*
X18683753Y-15422912D02*
X18683753Y-15346722D01*
X18683753Y-15346722D02*
X18693277Y-15327674D01*
X18693277Y-15327674D02*
X18712325Y-15318150D01*
X18712325Y-15318150D02*
X18750420Y-15318150D01*
X18750420Y-15318150D02*
X18769468Y-15327674D01*
X18769468Y-15327674D02*
X18778992Y-15346722D01*
X18778992Y-15346722D02*
X18778992Y-15365769D01*
X18778992Y-15365769D02*
X18683753Y-15384817D01*
X18855182Y-15441960D02*
X18874230Y-15451484D01*
X18874230Y-15451484D02*
X18912325Y-15451484D01*
X18912325Y-15451484D02*
X18931373Y-15441960D01*
X18931373Y-15441960D02*
X18940896Y-15422912D01*
X18940896Y-15422912D02*
X18940896Y-15413388D01*
X18940896Y-15413388D02*
X18931373Y-15394341D01*
X18931373Y-15394341D02*
X18912325Y-15384817D01*
X18912325Y-15384817D02*
X18883753Y-15384817D01*
X18883753Y-15384817D02*
X18864706Y-15375293D01*
X18864706Y-15375293D02*
X18855182Y-15356246D01*
X18855182Y-15356246D02*
X18855182Y-15346722D01*
X18855182Y-15346722D02*
X18864706Y-15327674D01*
X18864706Y-15327674D02*
X18883753Y-15318150D01*
X18883753Y-15318150D02*
X18912325Y-15318150D01*
X18912325Y-15318150D02*
X18931373Y-15327674D01*
X19007563Y-15527674D02*
X19017087Y-15518150D01*
X19017087Y-15518150D02*
X19036134Y-15489579D01*
X19036134Y-15489579D02*
X19045658Y-15470531D01*
X19045658Y-15470531D02*
X19055182Y-15441960D01*
X19055182Y-15441960D02*
X19064706Y-15394341D01*
X19064706Y-15394341D02*
X19064706Y-15356246D01*
X19064706Y-15356246D02*
X19055182Y-15308627D01*
X19055182Y-15308627D02*
X19045658Y-15280055D01*
X19045658Y-15280055D02*
X19036134Y-15261008D01*
X19036134Y-15261008D02*
X19017087Y-15232436D01*
X19017087Y-15232436D02*
X19007563Y-15222912D01*
M02*
