%TF.GenerationSoftware,KiCad,Pcbnew,9.0.6*%
%TF.CreationDate,2025-12-31T22:25:04-08:00*%
%TF.ProjectId,SimpleFlightController,53696d70-6c65-4466-9c69-676874436f6e,rev?*%
%TF.SameCoordinates,Original*%
%TF.FileFunction,Soldermask,Top*%
%TF.FilePolarity,Negative*%
%FSLAX46Y46*%
G04 Gerber Fmt 4.6, Leading zero omitted, Abs format (unit mm)*
G04 Created by KiCad (PCBNEW 9.0.6) date 2025-12-31 22:25:04*
%MOMM*%
%LPD*%
G01*
G04 APERTURE LIST*
G04 Aperture macros list*
%AMRoundRect*
0 Rectangle with rounded corners*
0 $1 Rounding radius*
0 $2 $3 $4 $5 $6 $7 $8 $9 X,Y pos of 4 corners*
0 Add a 4 corners polygon primitive as box body*
4,1,4,$2,$3,$4,$5,$6,$7,$8,$9,$2,$3,0*
0 Add four circle primitives for the rounded corners*
1,1,$1+$1,$2,$3*
1,1,$1+$1,$4,$5*
1,1,$1+$1,$6,$7*
1,1,$1+$1,$8,$9*
0 Add four rect primitives between the rounded corners*
20,1,$1+$1,$2,$3,$4,$5,0*
20,1,$1+$1,$4,$5,$6,$7,0*
20,1,$1+$1,$6,$7,$8,$9,0*
20,1,$1+$1,$8,$9,$2,$3,0*%
%AMRotRect*
0 Rectangle, with rotation*
0 The origin of the aperture is its center*
0 $1 length*
0 $2 width*
0 $3 Rotation angle, in degrees counterclockwise*
0 Add horizontal line*
21,1,$1,$2,0,0,$3*%
G04 Aperture macros list end*
%ADD10RoundRect,0.140000X0.170000X-0.140000X0.170000X0.140000X-0.170000X0.140000X-0.170000X-0.140000X0*%
%ADD11RoundRect,0.100000X0.162635X-0.021213X-0.021213X0.162635X-0.162635X0.021213X0.021213X-0.162635X0*%
%ADD12RoundRect,0.100000X0.100000X-0.130000X0.100000X0.130000X-0.100000X0.130000X-0.100000X-0.130000X0*%
%ADD13RotRect,1.400000X1.200000X225.000000*%
%ADD14RoundRect,0.100000X-0.130000X-0.100000X0.130000X-0.100000X0.130000X0.100000X-0.130000X0.100000X0*%
%ADD15RoundRect,0.100000X-0.100000X0.130000X-0.100000X-0.130000X0.100000X-0.130000X0.100000X0.130000X0*%
%ADD16RoundRect,0.140000X-0.170000X0.140000X-0.170000X-0.140000X0.170000X-0.140000X0.170000X0.140000X0*%
%ADD17RoundRect,0.250000X0.750000X-0.750000X0.750000X0.750000X-0.750000X0.750000X-0.750000X-0.750000X0*%
%ADD18C,2.000000*%
%ADD19RoundRect,0.140000X-0.140000X-0.170000X0.140000X-0.170000X0.140000X0.170000X-0.140000X0.170000X0*%
%ADD20C,0.700000*%
%ADD21R,0.550000X1.100000*%
%ADD22R,0.300000X1.100000*%
%ADD23O,1.100000X2.000000*%
%ADD24O,1.200000X1.800000*%
%ADD25RoundRect,0.225000X-0.225000X-0.250000X0.225000X-0.250000X0.225000X0.250000X-0.225000X0.250000X0*%
%ADD26R,0.280000X0.700000*%
%ADD27R,0.700000X0.280000*%
%ADD28R,2.800000X2.800000*%
%ADD29RoundRect,0.250000X-0.250000X-0.475000X0.250000X-0.475000X0.250000X0.475000X-0.250000X0.475000X0*%
%ADD30RoundRect,0.100000X0.130000X0.100000X-0.130000X0.100000X-0.130000X-0.100000X0.130000X-0.100000X0*%
%ADD31RoundRect,0.225000X0.225000X0.250000X-0.225000X0.250000X-0.225000X-0.250000X0.225000X-0.250000X0*%
%ADD32RoundRect,0.147500X-0.172500X0.147500X-0.172500X-0.147500X0.172500X-0.147500X0.172500X0.147500X0*%
%ADD33R,0.680000X0.280000*%
%ADD34R,0.280000X0.680000*%
%ADD35R,1.500000X3.320000*%
%ADD36RoundRect,0.140000X0.140000X0.170000X-0.140000X0.170000X-0.140000X-0.170000X0.140000X-0.170000X0*%
%ADD37R,0.700000X0.250000*%
%ADD38R,0.250000X0.700000*%
%ADD39R,1.450000X0.250000*%
%ADD40R,1.850000X0.250000*%
%ADD41R,3.800000X1.000000*%
%ADD42RoundRect,0.075000X-0.548008X0.441942X0.441942X-0.548008X0.548008X-0.441942X-0.441942X0.548008X0*%
%ADD43RoundRect,0.075000X-0.548008X-0.441942X-0.441942X-0.548008X0.548008X0.441942X0.441942X0.548008X0*%
%ADD44RoundRect,0.100000X-0.162635X0.021213X0.021213X-0.162635X0.162635X-0.021213X-0.021213X0.162635X0*%
%ADD45R,1.700000X1.700000*%
%ADD46C,1.700000*%
%ADD47R,0.800000X0.860000*%
%ADD48R,1.360000X1.230000*%
%ADD49RoundRect,0.135000X0.135000X0.185000X-0.135000X0.185000X-0.135000X-0.185000X0.135000X-0.185000X0*%
%ADD50R,2.160000X1.630000*%
%ADD51R,1.000000X1.800000*%
%ADD52C,1.000000*%
%ADD53R,0.600000X1.300000*%
%ADD54R,1.200000X1.400000*%
%ADD55R,1.200000X2.000000*%
%ADD56R,0.300000X0.300000*%
%ADD57RoundRect,0.150000X-0.512500X-0.150000X0.512500X-0.150000X0.512500X0.150000X-0.512500X0.150000X0*%
%ADD58RoundRect,0.135000X-0.135000X-0.185000X0.135000X-0.185000X0.135000X0.185000X-0.135000X0.185000X0*%
G04 APERTURE END LIST*
D10*
%TO.C,C5*%
X170440000Y-126680000D03*
X170440000Y-125720000D03*
%TD*%
D11*
%TO.C,C34*%
X144853051Y-112297416D03*
X144400503Y-111844868D03*
%TD*%
D12*
%TO.C,R6*%
X177740000Y-129020000D03*
X177740000Y-128380000D03*
%TD*%
D13*
%TO.C,X1*%
X146553554Y-108792284D03*
X144997919Y-110347919D03*
X146200000Y-111550000D03*
X147755635Y-109994365D03*
%TD*%
D14*
%TO.C,R8*%
X177020000Y-126850000D03*
X177660000Y-126850000D03*
%TD*%
D12*
%TO.C,C24*%
X154450000Y-110320000D03*
X154450000Y-109680000D03*
%TD*%
D15*
%TO.C,R20*%
X163000000Y-103405000D03*
X163000000Y-104045000D03*
%TD*%
%TO.C,C27*%
X148300000Y-121330000D03*
X148300000Y-121970000D03*
%TD*%
D16*
%TO.C,C1*%
X170440000Y-127870000D03*
X170440000Y-128830000D03*
%TD*%
D17*
%TO.C,J1*%
X178850000Y-119190000D03*
D18*
X178850000Y-116650000D03*
%TD*%
D19*
%TO.C,C28*%
X146020000Y-116200000D03*
X146980000Y-116200000D03*
%TD*%
D20*
%TO.C,USB1*%
X158563434Y-129096569D03*
X164343434Y-129096569D03*
D21*
X158253434Y-128016569D03*
X159053434Y-128016569D03*
D22*
X159703434Y-128016569D03*
X160203434Y-128016569D03*
X160703434Y-128016569D03*
X161203434Y-128016569D03*
X161703434Y-128016569D03*
X162203434Y-128016569D03*
X162703434Y-128016569D03*
X163203434Y-128016569D03*
D21*
X163853434Y-128016569D03*
X164653434Y-128016569D03*
D23*
X157133434Y-128566569D03*
D24*
X157133434Y-132776569D03*
D23*
X165773434Y-128566569D03*
D24*
X165773434Y-132776569D03*
%TD*%
D25*
%TO.C,C9*%
X177900000Y-113025000D03*
X179450000Y-113025000D03*
%TD*%
D26*
%TO.C,U1*%
X172390000Y-128750000D03*
X172890000Y-128750000D03*
X173390000Y-128750000D03*
X173890000Y-128750000D03*
X174390000Y-128750000D03*
X174890000Y-128750000D03*
D27*
X175640000Y-128000000D03*
X175640000Y-127500000D03*
X175640000Y-127000000D03*
X175640000Y-126500000D03*
X175640000Y-126000000D03*
X175640000Y-125500000D03*
D26*
X174890000Y-124750000D03*
X174390000Y-124750000D03*
X173890000Y-124750000D03*
X173390000Y-124750000D03*
X172890000Y-124750000D03*
X172400000Y-124750000D03*
D27*
X171640000Y-125500000D03*
X171640000Y-126000000D03*
X171640000Y-126500000D03*
X171640000Y-127000000D03*
X171640000Y-127500000D03*
X171640000Y-128000000D03*
D28*
X173650000Y-126750000D03*
%TD*%
D14*
%TO.C,C19*%
X169480000Y-116725000D03*
X170120000Y-116725000D03*
%TD*%
D19*
%TO.C,C31*%
X163390000Y-117900000D03*
X164350000Y-117900000D03*
%TD*%
D29*
%TO.C,C8*%
X177725000Y-109175000D03*
X179625000Y-109175000D03*
%TD*%
%TO.C,C7*%
X177725000Y-111225000D03*
X179625000Y-111225000D03*
%TD*%
D30*
%TO.C,C26*%
X153670000Y-126350000D03*
X153030000Y-126350000D03*
%TD*%
D31*
%TO.C,C6*%
X173215000Y-122550000D03*
X171665000Y-122550000D03*
%TD*%
D32*
%TO.C,D1*%
X172640000Y-129947500D03*
X172640000Y-130917500D03*
%TD*%
D29*
%TO.C,C10*%
X177675000Y-98275000D03*
X179575000Y-98275000D03*
%TD*%
D30*
%TO.C,R9*%
X169095000Y-119850000D03*
X168455000Y-119850000D03*
%TD*%
D33*
%TO.C,U2*%
X146040000Y-126710000D03*
X146040000Y-127210000D03*
X146040000Y-127710000D03*
X146040000Y-128210000D03*
D34*
X146800000Y-128470000D03*
X147300000Y-128470000D03*
X147800000Y-128470000D03*
D33*
X148560000Y-128210000D03*
X148560000Y-127710000D03*
X148560000Y-127210000D03*
X148560000Y-126710000D03*
D34*
X147800000Y-126450000D03*
X147300000Y-126450000D03*
X146800000Y-126450000D03*
%TD*%
D35*
%TO.C,L7*%
X169480000Y-111100000D03*
X166820000Y-111100000D03*
%TD*%
D15*
%TO.C,R7*%
X171625000Y-130930000D03*
X171625000Y-131570000D03*
%TD*%
%TO.C,R12*%
X180525000Y-106650000D03*
X180525000Y-107290000D03*
%TD*%
D36*
%TO.C,C30*%
X153630000Y-127400000D03*
X152670000Y-127400000D03*
%TD*%
D10*
%TO.C,C3*%
X177240000Y-125980000D03*
X177240000Y-125020000D03*
%TD*%
D12*
%TO.C,R4*%
X178940000Y-128320000D03*
X178940000Y-127680000D03*
%TD*%
D14*
%TO.C,R3*%
X177030000Y-127600000D03*
X177670000Y-127600000D03*
%TD*%
D25*
%TO.C,C12*%
X177900000Y-96425000D03*
X179450000Y-96425000D03*
%TD*%
D15*
%TO.C,C32*%
X152150000Y-125430000D03*
X152150000Y-126070000D03*
%TD*%
D37*
%TO.C,U5*%
X179375000Y-106225000D03*
X179375000Y-105725000D03*
X179375000Y-105225000D03*
X179375000Y-104725000D03*
D38*
X178925000Y-104025000D03*
X178425000Y-104025000D03*
X177925000Y-104025000D03*
X177425000Y-104025000D03*
D39*
X177335000Y-104975000D03*
D40*
X177535000Y-105475000D03*
D39*
X177335000Y-105975000D03*
D38*
X177425000Y-106925000D03*
X177925000Y-106925000D03*
X178425000Y-106925000D03*
X178925000Y-106925000D03*
%TD*%
D41*
%TO.C,L6*%
X174025000Y-104225000D03*
X174025000Y-106625000D03*
%TD*%
D14*
%TO.C,R2*%
X163233434Y-126729069D03*
X163873434Y-126729069D03*
%TD*%
D42*
%TO.C,U3*%
X154088819Y-111485519D03*
X153735266Y-111839072D03*
X153381713Y-112192625D03*
X153028159Y-112546179D03*
X152674606Y-112899732D03*
X152321052Y-113253286D03*
X151967499Y-113606839D03*
X151613946Y-113960392D03*
X151260392Y-114313946D03*
X150906839Y-114667499D03*
X150553286Y-115021052D03*
X150199732Y-115374606D03*
X149846179Y-115728159D03*
X149492625Y-116081713D03*
X149139072Y-116435266D03*
X148785519Y-116788819D03*
D43*
X148785519Y-119511181D03*
X149139072Y-119864734D03*
X149492625Y-120218287D03*
X149846179Y-120571841D03*
X150199732Y-120925394D03*
X150553286Y-121278948D03*
X150906839Y-121632501D03*
X151260392Y-121986054D03*
X151613946Y-122339608D03*
X151967499Y-122693161D03*
X152321052Y-123046714D03*
X152674606Y-123400268D03*
X153028159Y-123753821D03*
X153381713Y-124107375D03*
X153735266Y-124460928D03*
X154088819Y-124814481D03*
D42*
X156811181Y-124814481D03*
X157164734Y-124460928D03*
X157518287Y-124107375D03*
X157871841Y-123753821D03*
X158225394Y-123400268D03*
X158578948Y-123046714D03*
X158932501Y-122693161D03*
X159286054Y-122339608D03*
X159639608Y-121986054D03*
X159993161Y-121632501D03*
X160346714Y-121278948D03*
X160700268Y-120925394D03*
X161053821Y-120571841D03*
X161407375Y-120218287D03*
X161760928Y-119864734D03*
X162114481Y-119511181D03*
D43*
X162114481Y-116788819D03*
X161760928Y-116435266D03*
X161407375Y-116081713D03*
X161053821Y-115728159D03*
X160700268Y-115374606D03*
X160346714Y-115021052D03*
X159993161Y-114667499D03*
X159639608Y-114313946D03*
X159286054Y-113960392D03*
X158932501Y-113606839D03*
X158578948Y-113253286D03*
X158225394Y-112899732D03*
X157871841Y-112546179D03*
X157518287Y-112192625D03*
X157164734Y-111839072D03*
X156811181Y-111485519D03*
%TD*%
D44*
%TO.C,C33*%
X148100503Y-108094868D03*
X148553051Y-108547416D03*
%TD*%
D45*
%TO.C,J3*%
X179175000Y-93775000D03*
D46*
X176635000Y-93775000D03*
X174095000Y-93775000D03*
%TD*%
D47*
%TO.C,L4*%
X147450000Y-114800000D03*
X146050000Y-114800000D03*
%TD*%
D30*
%TO.C,C20*%
X168545000Y-117250000D03*
X167905000Y-117250000D03*
%TD*%
D15*
%TO.C,C37*%
X148070000Y-99960000D03*
X148070000Y-100600000D03*
%TD*%
%TO.C,R19*%
X161900000Y-103405000D03*
X161900000Y-104045000D03*
%TD*%
D48*
%TO.C,SW1*%
X145950000Y-98020000D03*
X145950000Y-102380000D03*
%TD*%
D15*
%TO.C,C21*%
X149500000Y-128430000D03*
X149500000Y-129070000D03*
%TD*%
%TO.C,R17*%
X168500000Y-103405000D03*
X168500000Y-104045000D03*
%TD*%
%TO.C,R18*%
X160800000Y-103405000D03*
X160800000Y-104045000D03*
%TD*%
D49*
%TO.C,R14*%
X174060000Y-113750000D03*
X173040000Y-113750000D03*
%TD*%
D50*
%TO.C,L5*%
X168390000Y-124230000D03*
X168390000Y-126570000D03*
%TD*%
D16*
%TO.C,C17*%
X164000000Y-111095000D03*
X164000000Y-112055000D03*
%TD*%
D51*
%TO.C,X2*%
X152700000Y-108850000D03*
X150200000Y-108850000D03*
%TD*%
D52*
%TO.C,Card1*%
X167990000Y-90700000D03*
X159990000Y-90700000D03*
D53*
X160800000Y-101550000D03*
X161900000Y-101550000D03*
X163000000Y-101550000D03*
X164100000Y-101550000D03*
X165200000Y-101550000D03*
X166300000Y-101550000D03*
X167400000Y-101550000D03*
X168500000Y-101550000D03*
X169600000Y-101550000D03*
D54*
X170800000Y-100700000D03*
D55*
X170800000Y-90990000D03*
X155280000Y-90990000D03*
D54*
X156120000Y-100700000D03*
%TD*%
D15*
%TO.C,C4*%
X176040000Y-123930000D03*
X176040000Y-124570000D03*
%TD*%
D12*
%TO.C,R5*%
X176940000Y-129020000D03*
X176940000Y-128380000D03*
%TD*%
D10*
%TO.C,C29*%
X155450000Y-110180000D03*
X155450000Y-109220000D03*
%TD*%
D12*
%TO.C,C35*%
X152725000Y-107135000D03*
X152725000Y-106495000D03*
%TD*%
D56*
%TO.C,U4*%
X169070000Y-117975000D03*
X169070000Y-118475000D03*
X169350000Y-119005000D03*
X169850000Y-119005000D03*
X170350000Y-119005000D03*
X170630000Y-118475000D03*
X170630000Y-117975000D03*
X170350000Y-117445000D03*
X169850000Y-117445000D03*
X169350000Y-117445000D03*
%TD*%
D12*
%TO.C,C36*%
X150175000Y-107135000D03*
X150175000Y-106495000D03*
%TD*%
D57*
%TO.C,U6*%
X171812500Y-110500000D03*
X171812500Y-111450000D03*
X171812500Y-112400000D03*
X174087500Y-112400000D03*
X174087500Y-111450000D03*
X174087500Y-110500000D03*
%TD*%
D15*
%TO.C,R21*%
X165200000Y-103405000D03*
X165200000Y-104045000D03*
%TD*%
D12*
%TO.C,C14*%
X180525000Y-104795000D03*
X180525000Y-104155000D03*
%TD*%
D58*
%TO.C,R15*%
X173040000Y-115100000D03*
X174060000Y-115100000D03*
%TD*%
D12*
%TO.C,C23*%
X156525000Y-110295000D03*
X156525000Y-109655000D03*
%TD*%
D29*
%TO.C,C11*%
X177675000Y-100325000D03*
X179575000Y-100325000D03*
%TD*%
D30*
%TO.C,R13*%
X181195000Y-105725000D03*
X180555000Y-105725000D03*
%TD*%
D14*
%TO.C,C22*%
X146770000Y-129610000D03*
X147410000Y-129610000D03*
%TD*%
%TO.C,R22*%
X150830000Y-103650000D03*
X151470000Y-103650000D03*
%TD*%
D30*
%TO.C,R1*%
X160128434Y-126779069D03*
X159488434Y-126779069D03*
%TD*%
D16*
%TO.C,C18*%
X165050000Y-111095000D03*
X165050000Y-112055000D03*
%TD*%
D12*
%TO.C,R11*%
X159950000Y-112245000D03*
X159950000Y-111605000D03*
%TD*%
D30*
%TO.C,C15*%
X173450000Y-109250000D03*
X172810000Y-109250000D03*
%TD*%
D48*
%TO.C,SW2*%
X151450000Y-97920000D03*
X151450000Y-102280000D03*
%TD*%
D29*
%TO.C,C13*%
X177675000Y-102375000D03*
X179575000Y-102375000D03*
%TD*%
D14*
%TO.C,C25*%
X163385000Y-118900000D03*
X164025000Y-118900000D03*
%TD*%
D15*
%TO.C,R16*%
X167400000Y-103405000D03*
X167400000Y-104045000D03*
%TD*%
D25*
%TO.C,C2*%
X174765000Y-122550000D03*
X176315000Y-122550000D03*
%TD*%
D30*
%TO.C,R10*%
X168020000Y-118525000D03*
X167380000Y-118525000D03*
%TD*%
D31*
%TO.C,C16*%
X171625000Y-114000000D03*
X170075000Y-114000000D03*
%TD*%
D45*
%TO.C,J2*%
X179190000Y-90100000D03*
D46*
X176650000Y-90100000D03*
X174110000Y-90100000D03*
%TD*%
M02*
