%TF.GenerationSoftware,KiCad,Pcbnew,9.0.6*%
%TF.CreationDate,2025-12-31T22:25:01-08:00*%
%TF.ProjectId,SimpleFlightController,53696d70-6c65-4466-9c69-676874436f6e,rev?*%
%TF.SameCoordinates,Original*%
%TF.FileFunction,Drillmap*%
%TF.FilePolarity,Positive*%
%FSLAX45Y45*%
G04 Gerber Fmt 4.5, Leading zero omitted, Abs format (unit mm)*
G04 Created by KiCad (PCBNEW 9.0.6) date 2025-12-31 22:25:01*
%MOMM*%
%LPD*%
G01*
G04 APERTURE LIST*
%ADD10C,0.050000*%
%ADD11C,0.200000*%
G04 APERTURE END LIST*
D10*
X14235000Y-8797500D02*
X18235000Y-8797500D01*
X18235000Y-13397500D01*
X14235000Y-13397500D01*
X14235000Y-8797500D01*
D11*
X14493277Y-13711484D02*
X14493277Y-13511484D01*
X14493277Y-13511484D02*
X14540896Y-13511484D01*
X14540896Y-13511484D02*
X14569467Y-13521008D01*
X14569467Y-13521008D02*
X14588515Y-13540055D01*
X14588515Y-13540055D02*
X14598039Y-13559103D01*
X14598039Y-13559103D02*
X14607562Y-13597198D01*
X14607562Y-13597198D02*
X14607562Y-13625769D01*
X14607562Y-13625769D02*
X14598039Y-13663865D01*
X14598039Y-13663865D02*
X14588515Y-13682912D01*
X14588515Y-13682912D02*
X14569467Y-13701960D01*
X14569467Y-13701960D02*
X14540896Y-13711484D01*
X14540896Y-13711484D02*
X14493277Y-13711484D01*
X14693277Y-13711484D02*
X14693277Y-13578150D01*
X14693277Y-13616246D02*
X14702801Y-13597198D01*
X14702801Y-13597198D02*
X14712324Y-13587674D01*
X14712324Y-13587674D02*
X14731372Y-13578150D01*
X14731372Y-13578150D02*
X14750420Y-13578150D01*
X14817086Y-13711484D02*
X14817086Y-13578150D01*
X14817086Y-13511484D02*
X14807562Y-13521008D01*
X14807562Y-13521008D02*
X14817086Y-13530531D01*
X14817086Y-13530531D02*
X14826610Y-13521008D01*
X14826610Y-13521008D02*
X14817086Y-13511484D01*
X14817086Y-13511484D02*
X14817086Y-13530531D01*
X14940896Y-13711484D02*
X14921848Y-13701960D01*
X14921848Y-13701960D02*
X14912324Y-13682912D01*
X14912324Y-13682912D02*
X14912324Y-13511484D01*
X15045658Y-13711484D02*
X15026610Y-13701960D01*
X15026610Y-13701960D02*
X15017086Y-13682912D01*
X15017086Y-13682912D02*
X15017086Y-13511484D01*
X15274229Y-13711484D02*
X15274229Y-13511484D01*
X15274229Y-13511484D02*
X15340896Y-13654341D01*
X15340896Y-13654341D02*
X15407562Y-13511484D01*
X15407562Y-13511484D02*
X15407562Y-13711484D01*
X15588515Y-13711484D02*
X15588515Y-13606722D01*
X15588515Y-13606722D02*
X15578991Y-13587674D01*
X15578991Y-13587674D02*
X15559943Y-13578150D01*
X15559943Y-13578150D02*
X15521848Y-13578150D01*
X15521848Y-13578150D02*
X15502801Y-13587674D01*
X15588515Y-13701960D02*
X15569467Y-13711484D01*
X15569467Y-13711484D02*
X15521848Y-13711484D01*
X15521848Y-13711484D02*
X15502801Y-13701960D01*
X15502801Y-13701960D02*
X15493277Y-13682912D01*
X15493277Y-13682912D02*
X15493277Y-13663865D01*
X15493277Y-13663865D02*
X15502801Y-13644817D01*
X15502801Y-13644817D02*
X15521848Y-13635293D01*
X15521848Y-13635293D02*
X15569467Y-13635293D01*
X15569467Y-13635293D02*
X15588515Y-13625769D01*
X15683753Y-13578150D02*
X15683753Y-13778150D01*
X15683753Y-13587674D02*
X15702801Y-13578150D01*
X15702801Y-13578150D02*
X15740896Y-13578150D01*
X15740896Y-13578150D02*
X15759943Y-13587674D01*
X15759943Y-13587674D02*
X15769467Y-13597198D01*
X15769467Y-13597198D02*
X15778991Y-13616246D01*
X15778991Y-13616246D02*
X15778991Y-13673388D01*
X15778991Y-13673388D02*
X15769467Y-13692436D01*
X15769467Y-13692436D02*
X15759943Y-13701960D01*
X15759943Y-13701960D02*
X15740896Y-13711484D01*
X15740896Y-13711484D02*
X15702801Y-13711484D01*
X15702801Y-13711484D02*
X15683753Y-13701960D01*
X15864705Y-13692436D02*
X15874229Y-13701960D01*
X15874229Y-13701960D02*
X15864705Y-13711484D01*
X15864705Y-13711484D02*
X15855182Y-13701960D01*
X15855182Y-13701960D02*
X15864705Y-13692436D01*
X15864705Y-13692436D02*
X15864705Y-13711484D01*
X15864705Y-13587674D02*
X15874229Y-13597198D01*
X15874229Y-13597198D02*
X15864705Y-13606722D01*
X15864705Y-13606722D02*
X15855182Y-13597198D01*
X15855182Y-13597198D02*
X15864705Y-13587674D01*
X15864705Y-13587674D02*
X15864705Y-13606722D01*
M02*
